<?xml version="1.0" encoding="UTF-8" standalone="no"?>
<!-- Created with Inkscape (http://www.inkscape.org/) -->

<svg
   width="140.19363mm"
   height="113.66467mm"
   viewBox="0 0 140.19363 113.66467"
   version="1.1"
   id="svg5"
   xml:space="preserve"
   inkscape:version="1.2.1 (9c6d41e410, 2022-07-14)"
   sodipodi:docname="Logo Bipoe V1.svg"
   xmlns:inkscape="http://www.inkscape.org/namespaces/inkscape"
   xmlns:sodipodi="http://sodipodi.sourceforge.net/DTD/sodipodi-0.dtd"
   xmlns="http://www.w3.org/2000/svg"
   xmlns:svg="http://www.w3.org/2000/svg"><sodipodi:namedview
     id="namedview7"
     pagecolor="#ffffff"
     bordercolor="#111111"
     borderopacity="1"
     inkscape:showpageshadow="0"
     inkscape:pageopacity="0"
     inkscape:pagecheckerboard="1"
     inkscape:deskcolor="#d1d1d1"
     inkscape:document-units="mm"
     showgrid="false"
     inkscape:zoom="0.64"
     inkscape:cx="300"
     inkscape:cy="-425"
     inkscape:window-width="2560"
     inkscape:window-height="1377"
     inkscape:window-x="1912"
     inkscape:window-y="-8"
     inkscape:window-maximized="1"
     inkscape:current-layer="svg5" /><defs
     id="defs2"><inkscape:path-effect
       effect="powermask"
       id="path-effect4282"
       is_visible="true"
       lpeversion="1"
       uri="#mask-powermask-path-effect4282"
       invert="false"
       hide_mask="false"
       background="true"
       background_color="#ffffffff" /><mask
       maskUnits="userSpaceOnUse"
       id="mask-powermask-path-effect4282"><path
         id="mask-powermask-path-effect4282_box"
         style="fill:#ffffff;fill-opacity:1"
         d="m 171.19989,95.373456 h 22.77648 v 34.060884 h -22.77648 z" /><path
         d="m 187.1559,117.65226 c -0.36459,0 -0.68902,-0.20657 -0.91567,-0.55108 l -4.0849,-6.57481 h -2.02754 v 5.63972 c 0,0.83666 -0.51224,1.48617 -1.17147,1.48617 -0.32508,0 -0.6398,-0.16706 -0.85609,-0.46236 -0.20722,-0.27587 -0.31537,-0.6398 -0.31537,-1.02381 v -15.60136 c 0,-0.797166 0.49216,-1.427254 1.13196,-1.427254 h 2.87459 c 0.81658,0 1.51531,0.07901 2.07675,0.226657 0.57052,0.147642 1.09247,0.422861 1.55483,0.806867 0.51223,0.44294 0.92538,0.99402 1.21096,1.65391 0.28559,0.65922 0.43323,1.48618 0.43323,2.48021 0,1.33853 -0.25579,2.47049 -0.75831,3.38616 -0.45266,0.81724 -1.06266,1.46675 -1.83069,1.92913 l 3.58303,5.64036 c 0.32508,0.51159 0.3445,1.22069 0.0492,1.76206 -0.21628,0.40344 -0.57115,0.62943 -0.95451,0.62943 z m -5.53222,-9.70519 c 0.52195,0 0.98431,-0.059 1.36832,-0.18715 0.36393,-0.11786 0.65923,-0.32443 0.91568,-0.6398 0.23571,-0.30501 0.42285,-0.65923 0.531,-1.06266 0.11851,-0.41381 0.17743,-0.94482 0.17743,-1.58462 0,-0.48244 -0.059,-0.90596 -0.18715,-1.26989 -0.11785,-0.35423 -0.305,-0.6398 -0.58087,-0.87617 -0.226,-0.19687 -0.48179,-0.34451 -0.78745,-0.42352 -0.31471,-0.0881 -0.70844,-0.12757 -1.1611,-0.12757 h -1.78147 v 6.17138 z"
         style="fill:#000000;fill-opacity:1;fill-rule:nonzero;stroke:none;stroke-width:0.131242"
         id="path4258" /></mask></defs><path
     d="m 26.00925,50.58763 c -0.980017,0 -1.852083,-0.555272 -2.461331,-1.481314 L 12.567712,31.433208 H 7.1176477 v 15.159567 c 0,2.248958 -1.376892,3.994855 -3.148894,3.994855 -0.873831,0 -1.719792,-0.449086 -2.30117,-1.242836 C 1.1105477,48.603255 0.81985969,47.625002 0.81985969,46.592775 V 4.6563156 c 0,-2.142772 1.32291601,-3.83645799 3.04270801,-3.83645799 h 7.7268913 c 2.194983,0 4.073172,0.21237199 5.582355,0.60924699 1.533525,0.396875 2.936522,1.13665 4.179358,2.168878 1.376892,1.190625 2.487436,2.671938 3.255081,4.445705 0.767644,1.772003 1.164519,3.9948564 1.164519,6.6667954 0,3.59798 -0.687564,6.640689 -2.03835,9.102019 -1.21673,2.196747 -2.856441,3.942645 -4.920897,5.185481 l 9.631186,15.16133 c 0.87383,1.375128 0.926042,3.281187 0.132292,4.736395 -0.581378,1.084439 -1.535289,1.691922 -2.565753,1.691922 z M 11.138609,24.500066 c 1.402997,0 2.645833,-0.158397 3.678061,-0.503061 0.978253,-0.316795 1.772003,-0.872067 2.46133,-1.719792 0.633589,-0.819855 1.13665,-1.772003 1.427339,-2.856441 0.318558,-1.112309 0.476956,-2.539648 0.476956,-4.259439 0,-1.296811 -0.158398,-2.435225 -0.503061,-3.413478 -0.316795,-0.952147 -0.819856,-1.719792 -1.561395,-2.3551454 -0.607483,-0.529166 -1.295047,-0.926041 -2.116666,-1.138414 -0.845961,-0.236713 -1.904295,-0.3429 -3.121025,-0.3429 H 7.0915427 V 24.500066 Z"
     style="fill:#cc0000;fill-opacity:1;fill-rule:nonzero;stroke:none;stroke-width:0.352778"
     id="path144"
     inkscape:export-filename="..\bipoelogo1.svg"
     inkscape:export-xdpi="96"
     inkscape:export-ydpi="96" /><path
     d="m 11.589459,1.5875016 c 2.142772,0 3.94088,0.184503 5.369983,0.581378 1.429103,0.370769 2.725914,1.058333 3.862564,2.012244 1.296811,1.110545 2.302933,2.485672 3.016602,4.153253 0.715434,1.6675814 1.084439,3.7842474 1.084439,6.3500004 0,3.465689 -0.633589,6.376106 -1.9304,8.73125 -1.296811,2.329039 -3.068813,4.101042 -5.345641,5.291667 l 10.082035,15.875 c 1.295048,2.036586 0.236714,5.185481 -1.773766,5.185481 -0.687564,0 -1.349022,-0.422981 -1.772003,-1.110545 L 12.964587,30.611588 H 6.2977927 v 15.955081 c 0,1.772003 -1.058334,3.201106 -2.355145,3.201106 -0.661458,0 -1.2446,-0.37077 -1.66758,-0.926042 -0.422981,-0.581378 -0.687564,-1.375128 -0.687564,-2.275064 V 4.6563156 c 0,-1.693686 1.006122,-3.042708 2.248958,-3.042708 H 11.589459 M 6.3500037,25.293816 h 4.7886053 c 1.509183,0 2.80423,-0.184503 3.916539,-0.529167 1.110544,-0.370769 2.062691,-1.032227 2.856441,-1.984375 0.715434,-0.899936 1.2446,-1.958269 1.5875,-3.121025 0.344664,-1.190625 0.503061,-2.673702 0.503061,-4.497916 0,-1.376892 -0.184503,-2.593623 -0.529166,-3.678061 -0.37077,-1.058334 -0.952148,-1.9582704 -1.772003,-2.6998094 -0.687564,-0.633589 -1.509183,-1.058333 -2.435225,-1.295047 -0.952147,-0.264583 -2.062692,-0.37077 -3.333397,-0.37077 H 6.3500037 V 25.293816 M 11.589459,1.612737e-6 H 3.8625677 C 1.7197957,1.612737e-6 0.02610969,2.0365876 0.02610969,4.6302096 V 46.566669 c 0,1.190625 0.344663,2.329039 1.00612201,3.201106 0.739775,1.006122 1.825977,1.561394 2.936522,1.561394 2.222852,0 3.942644,-2.090561 3.942644,-4.788606 v -14.36758 h 4.2072283 l 10.74173,17.277997 c 0.739775,1.16452 1.904294,1.878189 3.121024,1.878189 1.350787,0 2.513542,-0.767644 3.255081,-2.090561 0.926041,-1.719792 0.87383,-3.942645 -0.158397,-5.55625 l -9.1821,-14.445897 c 1.852083,-1.270706 3.361267,-2.962628 4.525786,-5.027084 1.401233,-2.565753 2.142772,-5.768622 2.142772,-9.498894 0,-2.778125 -0.396875,-5.1332704 -1.21673,-6.9853534 -0.82162,-1.878189 -1.984375,-3.491795 -3.467453,-4.734631 C 20.557422,1.8781906 19.050003,1.0844406 17.382423,0.63535461 15.794923,0.21237361 13.864523,1.612737e-6 11.589459,1.612737e-6 Z M 7.9375037,8.7051456 h 3.9948553 c 1.138414,0 2.116667,0.106187 2.910416,0.316795 0.715434,0.186267 1.270706,0.503061 1.773767,0.952147 0.633589,0.5570364 1.058333,1.2184954 1.322917,2.0383504 0.290689,0.899936 0.449086,1.95827 0.449086,3.148895 0,1.639711 -0.158397,3.014839 -0.449086,4.047066 -0.292453,0.952148 -0.715434,1.825978 -1.296811,2.567517 -0.583142,0.713669 -1.270706,1.216731 -2.090561,1.455208 -0.952148,0.316795 -2.116667,0.449086 -3.439584,0.449086 H 7.9113977 V 8.7051456 Z"
     style="fill:#cc0000;fill-opacity:1;fill-rule:nonzero;stroke:none;stroke-width:0.352778"
     id="path146" /><path
     d="m 48.921813,51.567647 c -2.355145,0 -4.4196,-0.422981 -6.165497,-1.270706 C 40.984313,49.45098 39.47513,48.154169 38.258399,46.514458 36.909377,44.662375 35.931124,42.413416 35.347983,39.819794 34.766605,37.254041 34.475916,34.105147 34.475916,30.427086 V 4.7886076 c 0,-2.194984 1.427339,-3.99485599 3.175,-3.99485599 0.872067,0 1.719792,0.44908599 2.301169,1.27070599 0.555273,0.739775 0.845961,1.719791 0.845961,2.72415 V 30.74388 c 0,2.567517 0.132292,4.577997 0.396875,6.033206 0.238478,1.429102 0.661459,2.725913 1.2446,3.888669 0.635353,1.270706 1.481314,2.222853 2.539647,2.8321 1.058334,0.635353 2.38125,0.952147 3.942645,0.952147 1.561394,0 2.884311,-0.316794 3.942644,-0.926041 1.058333,-0.609248 1.904294,-1.5875 2.565753,-2.858206 0.581377,-1.13665 1.006122,-2.485672 1.242836,-3.994856 0.264583,-1.507419 0.370769,-3.465688 0.370769,-5.766858 V 4.7886076 c 0,-2.194984 1.429103,-3.99485599 3.175,-3.99485599 0.87383,0 1.719791,0.44908599 2.302933,1.27070599 0.555272,0.739775 0.845957,1.719791 0.845957,2.72415 V 30.427086 c 0,3.519663 -0.290685,6.666794 -0.873826,9.312627 -0.581378,2.699809 -1.5875,5.000978 -2.936522,6.80085 -1.296811,1.745898 -2.856442,3.042709 -4.604103,3.836459 -1.719792,0.79375 -3.756378,1.190625 -6.031441,1.190625 z"
     style="fill:#cc0000;fill-opacity:1;fill-rule:nonzero;stroke:none;stroke-width:0.352778"
     id="path148" /><path
     d="m 60.218815,1.5875016 c 0.661458,0 1.2446,0.370769 1.66758,0.952147 0.422981,0.583142 0.687564,1.376892 0.687564,2.275064 V 30.453191 c 0,3.493558 -0.290689,6.536267 -0.845961,9.128125 -0.557036,2.593622 -1.483078,4.7625 -2.778125,6.482292 -1.218494,1.641475 -2.673702,2.8321 -4.313413,3.59798 -1.639711,0.767645 -3.54577,1.138414 -5.740753,1.138414 -2.222853,0 -4.181122,-0.396875 -5.820833,-1.190625 -1.66758,-0.79375 -3.042708,-1.984375 -4.181122,-3.519664 -1.296811,-1.772002 -2.222853,-3.914775 -2.778125,-6.402211 -0.555272,-2.513541 -0.845961,-5.582355 -0.845961,-9.234311 V 4.8147126 c 0,-1.772003 1.058333,-3.201105 2.38125,-3.201105 0.661458,0 1.242836,0.370769 1.665817,0.952147 0.42298,0.583141 0.687563,1.376891 0.687563,2.276828 V 30.797855 c 0,2.619728 0.132292,4.682419 0.396875,6.163733 0.264584,1.509184 0.715434,2.884311 1.322917,4.128911 0.689328,1.401234 1.641475,2.459567 2.858205,3.175001 1.216731,0.713669 2.645834,1.058333 4.33952,1.058333 1.719791,0 3.148894,-0.344664 4.365624,-1.058333 1.190625,-0.715434 2.142773,-1.773767 2.856442,-3.175001 0.635353,-1.2446 1.058333,-2.645833 1.322917,-4.233333 0.264583,-1.5875 0.396875,-3.545769 0.396875,-5.900914 V 4.8425826 c -0.02611,-1.799873 1.058333,-3.255081 2.355144,-3.255081 m 0,-1.587499987263 c -2.222853,0 -3.96875,2.116666987263 -3.96875,4.788605987263 V 30.904041 c 0,2.275064 -0.132292,4.179358 -0.370769,5.634567 -0.236714,1.429103 -0.633589,2.699808 -1.190625,3.784247 -0.581378,1.164519 -1.322917,1.984375 -2.248959,2.539647 -0.952147,0.555272 -2.142772,0.819856 -3.544005,0.819856 -1.429103,0 -2.567516,-0.264584 -3.519664,-0.845961 -0.952147,-0.555273 -1.66758,-1.376892 -2.248958,-2.513542 C 42.571813,39.210547 42.174938,37.993816 41.93646,36.644794 41.697982,35.241797 41.565691,33.257422 41.565691,30.74388 V 4.7886076 c 0,-1.190625 -0.3429,-2.327275 -1.004358,-3.201106 C 39.819794,0.58137961 38.735355,1.612737e-6 37.596941,1.612737e-6 35.374088,1.612737e-6 33.628191,2.1166686 33.628191,4.7886076 V 30.427086 c 0,3.730272 0.290689,6.959247 0.873831,9.577211 0.607483,2.699808 1.639711,5.054953 3.042708,6.985353 1.268941,1.745897 2.884311,3.122788 4.788605,4.022725 1.878189,0.898172 4.048831,1.349022 6.534503,1.349022 2.409119,0 4.551891,-0.422981 6.403974,-1.270706 1.878189,-0.845961 3.5179,-2.222853 4.920897,-4.074936 1.429103,-1.878189 2.461331,-4.285544 3.068816,-7.089775 0.58314,-2.699808 0.87383,-5.900914 0.87383,-9.472789 V 4.8147126 c 0,-1.190625 -0.34467,-2.327275 -1.006124,-3.201105 C 62.415562,0.58137961 61.357229,1.612737e-6 60.218815,1.612737e-6 Z"
     style="fill:#cc0000;fill-opacity:1;fill-rule:nonzero;stroke:none;stroke-width:0.352778"
     id="path150" /><path
     d="m 96.202145,50.58763 c -1.37513,0 -2.56575,-1.084439 -2.98873,-2.72415 l -2.77813,-10.689519 h -14.1552 l -2.806,10.795705 c -0.42298,1.559631 -1.55963,2.617964 -2.88255,2.617964 -1.66758,0 -3.0427,-1.719792 -3.0427,-3.836458 0,-0.422981 0.0522,-0.845961 0.15839,-1.242836 L 78.475065,5.4239596 c 0.74154,-2.752019 2.75202,-4.60410199 5.00098,-4.60410199 1.13841,0 2.22285,0.45084999 3.12279,1.32291599 0.87206,0.819856 1.50741,1.95827 1.87818,3.281186 l 10.71563,39.8720034 c 0.39687,1.429103 0.10618,3.016603 -0.71543,4.101042 -0.60749,0.741539 -1.40124,1.190625 -2.27507,1.190625 z m -7.67291,-20.531314 -5.18549,-18.59915 -5.21158,18.59915 z"
     style="fill:#cc0000;fill-opacity:1;fill-rule:nonzero;stroke:none;stroke-width:0.352778"
     id="path152" /><path
     d="m 83.476045,1.5875016 c 0.95214,0 1.85208,0.396875 2.59362,1.110544 0.73977,0.715434 1.32292,1.719792 1.63971,2.910417 L 98.424995,45.48223 c 0.55528,2.090561 -0.58137,4.285545 -2.22285,4.285545 -1.00436,0 -1.90429,-0.845962 -2.22285,-2.142773 l -2.93652,-11.297003 h -15.39805 l -2.96439,11.429295 c -0.31679,1.216731 -1.16275,2.036586 -2.11667,2.036586 -1.26894,0 -2.24895,-1.427339 -2.24895,-3.042708 0,-0.3429 0.054,-0.687564 0.13229,-1.058334 l 10.7696,-40.0843754 c 0.66146,-2.407355 2.35514,-4.020961 4.25944,-4.020961 m -6.40221,29.2625644 h 12.48762 L 83.317645,8.5188796 77.073835,30.850066 M 83.476045,1.612737e-6 c -2.61973,0 -4.9209,2.090560987263 -5.76863,5.185480987263 L 66.939585,45.269858 c -0.13229,0.476955 -0.1845,0.980017 -0.1845,1.455208 0,2.593622 1.69192,4.630209 3.83645,4.630209 1.69193,0 3.14713,-1.296812 3.6502,-3.227212 l 2.64583,-10.212564 h 12.93848 l 2.61972,10.106378 c 0.52917,1.984375 2.03659,3.333398 3.75638,3.333398 1.11231,0 2.14277,-0.529167 2.88431,-1.50742 0.978255,-1.270705 1.296805,-3.096683 0.87383,-4.788605 L 89.244665,5.1854826 c -0.39688,-1.481314 -1.11231,-2.72415 -2.09056,-3.650192 C 86.095765,0.52916861 84.798955,1.612737e-6 83.476045,1.612737e-6 Z M 79.190495,29.262566 l 4.15325,-14.842772 4.15326,14.842772 z"
     style="fill:#cc0000;fill-opacity:1;fill-rule:nonzero;stroke:none;stroke-width:0.352778"
     id="path154" /><path
     d="m 134.43443,50.58763 c -1.772,0 -3.14889,-1.745897 -3.14889,-3.994855 v -31.66992 l -7.75124,32.014583 v 0.02611 c -0.47695,1.375128 -1.56139,2.248958 -2.75202,2.248958 -0.63535,0 -1.21673,-0.238477 -1.71979,-0.661458 -0.44908,-0.370769 -0.81985,-0.926042 -1.05833,-1.5875 l -0.0261,-0.02611 -7.67291,-31.962372 v 31.803975 c 0,2.116667 -1.32292,3.782484 -3.0166,3.782484 -0.81986,0 -1.63972,-0.422981 -2.19675,-1.190625 -0.52917,-0.71367 -0.79375,-1.639712 -0.79375,-2.591859 V 6.9592486 c 0,-3.387372 2.14453,-6.16549699 4.7625,-6.16549699 0.92604,0 1.85208,0.34466399 2.61973,1.00612199 0.74153,0.607484 1.32291,1.50742 1.69368,2.565753 l 0.0261,0.05221 7.64681,32.4915394 7.56673,-31.9083974 c 0.58314,-2.513542 2.35514,-4.18112199 4.39173,-4.18112199 1.2707,0 2.46133,0.66145799 3.33516,1.82597699 0.81985,1.110545 1.26894,2.565753 1.26894,4.101042 V 46.592774 c 0,2.222852 -1.40123,3.994855 -3.175,3.994856 z"
     style="fill:#cc0000;fill-opacity:1;fill-rule:nonzero;stroke:none;stroke-width:0.352778"
     id="path156" /><path
     d="m 133.00533,1.5875016 c 1.05833,0 2.01224,0.581378 2.69981,1.507419 0.68756,0.926042 1.11054,2.222853 1.11054,3.651956 V 46.592775 c 0,1.773766 -1.05833,3.201105 -2.35514,3.201105 -1.29505,0 -2.35338,-1.427339 -2.35338,-3.201105 V 8.2542956 l -9.28829,38.4446654 c -0.369,1.058333 -1.13665,1.719791 -2.01048,1.719791 -0.42298,0 -0.84596,-0.158397 -1.19062,-0.476955 -0.3429,-0.290689 -0.63536,-0.739775 -0.81986,-1.268942 L 109.5636,8.2281906 V 46.751172 c 0,1.66758 -0.97825,2.990497 -2.22285,2.990497 -0.60749,0 -1.16276,-0.344664 -1.55963,-0.873831 -0.39688,-0.555272 -0.63536,-1.295047 -0.63536,-2.116666 V 6.9592486 c 0,-2.964391 1.77201,-5.371747 3.96875,-5.371747 0.76765,0 1.48132,0.290689 2.11667,0.819856 0.63535,0.529166 1.13665,1.296811 1.45521,2.222852 l 8.41269,35.7187514 8.33437,-35.1634784 c 0.45085,-2.142773 1.93217,-3.597981 3.57188,-3.597981 m 0,-1.587499987263 c -2.40736,0 -4.47005,1.932163987263 -5.15938,4.788605987263 l -6.77298,28.6289754 -6.87916,-29.1581424 -0.0261,-0.07832 -0.0261,-0.08008 c -0.42298,-1.190625 -1.08444,-2.196748 -1.93217,-2.910417 C 111.2834,0.39687361 110.19896,-1.387263e-6 109.08842,-1.387263e-6 c -1.5614,0 -3.04271,0.819855997263 -4.07494,2.222852987263 -0.95215,1.296811 -1.48131,2.962628 -1.48131,4.736394 V 46.779041 c 0,1.13665 0.3429,2.221089 0.95214,3.068814 0.71367,0.952147 1.7459,1.50742 2.83034,1.50742 2.14277,0 3.81035,-2.010481 3.81035,-4.576234 V 21.66973 l 6.08542,25.4 0.0261,0.07832 0.0261,0.08008 c 0.26458,0.79375 0.71543,1.455209 1.29681,1.932164 0.63535,0.555272 1.4291,0.845961 2.22285,0.845961 1.53529,0 2.91042,-1.084439 3.51967,-2.778125 l 0.0261,-0.08008 0.0261,-0.07832 6.1655,-25.506186 v 25.003125 c 0,2.671939 1.74589,4.788606 3.94088,4.788606 2.19674,0 3.94264,-2.090562 3.94264,-4.788606 V 6.7468766 c 0,-1.719792 -0.50306,-3.333397 -1.4291,-4.577997 C 135.96971,0.79375161 134.5145,1.612737e-6 133.00532,1.612737e-6 Z"
     style="fill:#cc0000;fill-opacity:1;fill-rule:nonzero;stroke:none;stroke-width:0.352778"
     id="path158" /><path
     d="m 30.956252,112.8709 c -1.745897,0 -3.174999,-1.79811 -3.174999,-3.99486 V 77.338416 l -7.725128,32.569854 -0.02787,0.0261 c -0.475192,1.37512 -1.559631,2.24896 -2.750256,2.24896 -0.635352,0 -1.218494,-0.23848 -1.719791,-0.66146 -0.45085,-0.39688 -0.82162,-0.95215 -1.058334,-1.5875 v -0.0261 L 6.8269587,77.390627 v 31.697793 c 0,2.11666 -1.322916,3.78248 -3.016602,3.78248 -0.847725,0 -1.613606,-0.42298 -2.196748,-1.19063 -0.529166,-0.71367 -0.79374901,-1.6136 -0.79374901,-2.59185 V 69.240755 c 0,-3.385608 2.14277201,-6.163733 4.76249901,-6.163733 0.952147,0 1.852084,0.3429 2.619728,1.004358 0.741539,0.635353 1.322917,1.509184 1.693686,2.567517 l 0.02611,0.05221 7.6468103,33.072914 7.56673,-32.489772 c 0.581378,-2.513542 2.355145,-4.207228 4.391731,-4.207228 1.270705,0 2.46133,0.661458 3.333397,1.825978 0.821619,1.110544 1.270705,2.565752 1.270705,4.101041 v 39.872 c -0.02611,2.24896 -1.402997,3.99486 -3.175,3.99486 z"
     style="fill:#cc0000;fill-opacity:1;fill-rule:nonzero;stroke:none;stroke-width:0.352778"
     id="path160" /><path
     d="m 29.52715,63.896877 c 1.058333,0 2.01048,0.581378 2.671938,1.50742 0.689328,0.926042 1.112309,2.222853 1.112309,3.62585 v 39.845893 c 0,1.77201 -1.058334,3.20111 -2.355145,3.20111 -1.296811,0 -2.381249,-1.4291 -2.381249,-3.20111 V 70.563672 l -9.286522,39.106118 c -0.37077,1.05834 -1.138414,1.7198 -2.010481,1.7198 -0.424744,0 -0.847725,-0.1584 -1.190625,-0.47696 -0.344663,-0.29069 -0.635352,-0.73978 -0.821619,-1.26894 L 6.0332087,70.537566 v 38.522984 c 0,1.66758 -0.980016,2.99049 -2.222852,2.99049 -0.609248,0 -1.16452,-0.34466 -1.561395,-0.87383 -0.396875,-0.55527 -0.635353,-1.29504 -0.635353,-2.11666 V 69.240755 c 0,-2.962628 1.773767,-5.369983 3.96875,-5.369983 0.767645,0 1.481314,0.290689 2.116667,0.819855 0.609247,0.529167 1.138414,1.296812 1.455208,2.222853 l 8.4144553,36.40631 8.36048,-35.824932 c 0.476956,-2.142772 1.932164,-3.597981 3.597981,-3.597981 m 0,-1.5875 c -2.407356,0 -4.497917,1.932164 -5.159375,4.814712 l -6.799086,29.158142 -6.879166,-29.713415 -0.02611,-0.07832 -0.02787,-0.08008 c -0.422981,-1.190625 -1.0844393,-2.196747 -1.9304003,-2.910417 -0.926042,-0.79375 -2.01048,-1.21673 -3.148894,-1.21673 -1.561395,0 -3.042708,0.819855 -4.074936,2.222853 C 0.52916569,65.801169 -1.3088799e-6,67.468749 -1.3088799e-6,69.240752 v 39.819798 c 0,1.13841 0.3446639988799,2.22285 0.9521469988799,3.07057 0.71543301,0.97826 1.74589701,1.50742 2.83210001,1.50742 2.142772,0 3.808589,-2.01048 3.808589,-4.57799 V 84.189711 l 6.0854163,25.824749 0.02787,0.0783 0.02611,0.0801 c 0.264583,0.79375 0.713669,1.45521 1.296811,1.95827 0.633589,0.55528 1.401233,0.84597 2.221089,0.84597 1.535289,0 2.910416,-1.08444 3.519664,-2.77813 l 0.02611,-0.0801 0.02611,-0.0783 6.165497,-25.929159 v 24.764639 c 0,2.67194 1.745897,4.78861 3.968749,4.78861 2.222853,0 3.942645,-2.09056 3.942645,-4.78861 V 69.030147 c 0,-1.719792 -0.503061,-3.333397 -1.429103,-4.577997 -1.006122,-1.375128 -2.433461,-2.142773 -3.942644,-2.142773 z"
     style="fill:#cc0000;fill-opacity:1;fill-rule:nonzero;stroke:none;stroke-width:0.352778"
     id="path162" /><path
     d="m 54.63646,112.8709 c -1.719792,0 -3.148895,-1.772 -3.148895,-3.96875 V 67.071877 c 0,-2.196747 1.402997,-3.96875 3.148895,-3.96875 1.745897,0 3.148894,1.772003 3.148894,3.96875 v 41.830273 c -0.02611,2.19675 -1.429103,3.96875 -3.148894,3.96875 z"
     style="fill:#cc0000;fill-opacity:1;fill-rule:nonzero;stroke:none;stroke-width:0.352778"
     id="path164" /><path
     d="m 54.63646,63.896877 c 1.296811,0 2.355144,1.429103 2.355144,3.175 v 41.830273 c 0,1.7459 -1.058333,3.175 -2.355144,3.175 -1.296811,0 -2.355145,-1.4291 -2.355145,-3.175 V 67.071877 c 0,-1.772002 1.058334,-3.175 2.355145,-3.175 m 0,-1.5875 c -2.196748,0 -3.942645,2.090562 -3.942645,4.7625 v 41.830273 c 0,2.67194 1.719792,4.7625 3.942645,4.7625 2.222852,0 3.942644,-2.09056 3.942644,-4.7625 V 67.071877 c -0.02611,-2.671938 -1.745897,-4.7625 -3.942644,-4.7625 z"
     style="fill:#cc0000;fill-opacity:1;fill-rule:nonzero;stroke:none;stroke-width:0.352778"
     id="path166" /><path
     d="m 86.228065,112.8709 c -1.7459,0 -3.1489,-1.79811 -3.1489,-3.99486 V 70.379169 h -9.81569 c -1.6136,0 -2.91041,-1.5875 -2.91041,-3.651955 0,-2.062692 1.26894,-3.650192 2.91041,-3.650192 h 25.95527 c 1.613605,0 2.910415,1.5875 2.910415,3.650192 0,2.064455 -1.2707,3.651955 -2.910415,3.651955 h -9.81568 v 38.496871 c 0,2.19675 -1.42911,3.99486 -3.175,3.99486 z"
     style="fill:#cc0000;fill-opacity:1;fill-rule:nonzero;stroke:none;stroke-width:0.352778"
     id="path168" /><path
     d="m 99.218745,63.896877 c 1.164515,0 2.116665,1.270706 2.116665,2.858206 0,1.5875 -0.95215,2.856442 -2.116665,2.856442 h -10.60943 v 39.264515 c 0,1.77201 -1.05834,3.20111 -2.35515,3.20111 -1.29681,0 -2.35514,-1.4291 -2.35514,-3.20111 V 69.585419 h -10.60944 c -1.16452,0 -2.11667,-1.270705 -2.11667,-2.858205 0,-1.5875 0.95215,-2.856442 2.11667,-2.856442 h 25.92916 m 0,-1.561395 h -25.95527 c -2.06445,0 -3.70416,1.95827 -3.70416,4.445706 0,2.485672 1.6136,4.443942 3.70416,4.443942 h 9.02194 v 37.677015 c 0,2.69805 1.7459,4.78861 3.94265,4.78861 2.19498,0 3.94264,-2.11667 3.94264,-4.78861 V 71.172919 h 9.02194 c 2.062685,0 3.704155,-1.958269 3.704155,-4.445705 0,-2.485673 -1.6136,-4.417837 -3.678055,-4.417837 z"
     style="fill:#cc0000;fill-opacity:1;fill-rule:nonzero;stroke:none;stroke-width:0.352778"
     id="path170" /><path
     id="path2869"
     mask="url(#mask-powermask-path-effect4282)"
     style="display:inline;fill:#cc0000;fill-opacity:1;stroke:none;stroke-width:0.747352;stroke-linecap:round;stroke-linejoin:round;stroke-miterlimit:10"
     class="st5"
     d="m 182.58844,96.373456 c -5.73965,0 -10.38855,4.648284 -10.38855,10.387924 0,5.73965 3.94639,15.24574 10.38855,21.67296 6.2927,-6.2927 10.38793,-15.94825 10.38793,-21.67296 0,-5.73964 -4.64827,-10.387924 -10.38793,-10.387924 z"
     transform="matrix(1.6376591,0,0,1.6376591,-175.83587,-97.54934)"
     inkscape:original-d="m 182.58844,96.373456 c -5.73965,0 -10.38855,4.648284 -10.38855,10.387924 0,5.73965 3.94639,15.24574 10.38855,21.67296 6.2927,-6.2927 10.38793,-15.94825 10.38793,-21.67296 0,-5.73964 -4.64827,-10.387924 -10.38793,-10.387924 z"
     inkscape:path-effect="#path-effect4282" /><path
     d="m 11.589459,1.5875016 c 2.142772,0 3.94088,0.184503 5.369983,0.581378 1.429103,0.370769 2.725914,1.058333 3.862564,2.012244 1.296811,1.110545 2.302933,2.485672 3.016602,4.153253 0.715434,1.6675814 1.084439,3.7842474 1.084439,6.3500004 0,3.465689 -0.633589,6.376106 -1.9304,8.73125 -1.296811,2.329039 -3.068813,4.101042 -5.345641,5.291667 l 10.082035,15.875 c 1.295048,2.036586 0.236714,5.185481 -1.773766,5.185481 -0.687564,0 -1.349022,-0.422981 -1.772003,-1.110545 L 12.964587,30.611588 H 6.2977927 v 15.955081 c 0,1.772003 -1.058334,3.201106 -2.355145,3.201106 -0.661458,0 -1.2446,-0.37077 -1.66758,-0.926042 -0.422981,-0.581378 -0.687564,-1.375128 -0.687564,-2.275064 V 4.6563156 c 0,-1.693686 1.006122,-3.042708 2.248958,-3.042708 H 11.589459 M 6.3500037,25.293816 h 4.7886053 c 1.509183,0 2.80423,-0.184503 3.916539,-0.529167 1.110544,-0.370769 2.062691,-1.032227 2.856441,-1.984375 0.715434,-0.899936 1.2446,-1.958269 1.5875,-3.121025 0.344664,-1.190625 0.503061,-2.673702 0.503061,-4.497916 0,-1.376892 -0.184503,-2.593623 -0.529166,-3.678061 -0.37077,-1.058334 -0.952148,-1.9582704 -1.772003,-2.6998094 -0.687564,-0.633589 -1.509183,-1.058333 -2.435225,-1.295047 -0.952147,-0.264583 -2.062692,-0.37077 -3.333397,-0.37077 H 6.3500037 V 25.293816 M 11.589459,1.612737e-6 H 3.8625677 C 1.7197957,1.612737e-6 0.02610969,2.0365876 0.02610969,4.6302096 V 46.566669 c 0,1.190625 0.344663,2.329039 1.00612201,3.201106 0.739775,1.006122 1.825977,1.561394 2.936522,1.561394 2.222852,0 3.942644,-2.090561 3.942644,-4.788606 v -14.36758 h 4.2072283 l 10.74173,17.277997 c 0.739775,1.16452 1.904294,1.878189 3.121024,1.878189 1.350787,0 2.513542,-0.767644 3.255081,-2.090561 0.926041,-1.719792 0.87383,-3.942645 -0.158397,-5.55625 l -9.1821,-14.445897 c 1.852083,-1.270706 3.361267,-2.962628 4.525786,-5.027084 1.401233,-2.565753 2.142772,-5.768622 2.142772,-9.498894 0,-2.778125 -0.396875,-5.1332704 -1.21673,-6.9853534 -0.82162,-1.878189 -1.984375,-3.491795 -3.467453,-4.734631 C 20.557422,1.8781906 19.050003,1.0844406 17.382423,0.63535461 15.794923,0.21237361 13.864523,1.612737e-6 11.589459,1.612737e-6 Z M 7.9375037,8.7051456 h 3.9948553 c 1.138414,0 2.116667,0.106187 2.910416,0.316795 0.715434,0.186267 1.270706,0.503061 1.773767,0.952147 0.633589,0.5570364 1.058333,1.2184954 1.322917,2.0383504 0.290689,0.899936 0.449086,1.95827 0.449086,3.148895 0,1.639711 -0.158397,3.014839 -0.449086,4.047066 -0.292453,0.952148 -0.715434,1.825978 -1.296811,2.567517 -0.583142,0.713669 -1.270706,1.216731 -2.090561,1.455208 -0.952148,0.316795 -2.116667,0.449086 -3.439584,0.449086 H 7.9113977 V 8.7051456 Z"
     style="fill:#cc0000;fill-opacity:1;fill-rule:nonzero;stroke:none;stroke-width:0.352778"
     id="path3450" /></svg>
