<?xml version="1.0" encoding="utf-8"?>
<!-- Generator: Adobe Illustrator 22.1.0, SVG Export Plug-In . SVG Version: 6.00 Build 0)  -->
<svg version="1.1" id="Layer_1" xmlns="http://www.w3.org/2000/svg" xmlns:xlink="http://www.w3.org/1999/xlink" x="0px" y="0px"
	 viewBox="0 0 1280 1080" style="enable-background:new 0 0 1280 1080;" xml:space="preserve">
<style type="text/css">
	.st0{fill:#023049;}
	.st1{fill:#D9C029;}
	.st2{fill:#CCCC33;}
	.st3{fill:#FFFFFF;}
</style>
<g id="Layer_2_1_">
	<g>
		<g>
			<path class="st0" d="M381.4,178.9h558.8c55.6,0,100.7,45.1,100.7,100.7V789c0,55.6-45.1,100.7-100.7,100.7H381.4
				c-55.6,0-100.7-45.1-100.7-100.7V279.6C280.7,223.9,325.8,178.9,381.4,178.9z"/>
		</g>
		<g>
			<path class="st0" d="M1045,889.7"/>
		</g>
	</g>
</g>
<g id="Layer_3">
	<g>
		<path class="st1" d="M922.2,459.2c-19,28.9-48.7,30.5-73.6,6.6c-7.5-7.2-13.2-14.9-19.3-23.5c-3.5-4.9-3.4-12.7-7.3-17.1
			c-5.2-5.8-6.8-5.4-14.1-8.4c11.7-4.4,15.9-15.6,15.3-28.1c-0.5-9.3-0.3-20.5,0.3-29.8c2.2-34,25.2-59.3,54.9-59.6
			c35.9-0.3,68.9,27.6,70.6,60.7C951,395.9,941.9,429.2,922.2,459.2z"/>
		<path class="st2" d="M884.7,482.9c-12.3,0-25-5.8-36.4-16.8c-7.6-7.3-13.5-15.3-19.4-23.6c-1.7-2.4-2.6-5.4-3.4-8.3
			c-1-3.3-1.9-6.5-3.8-8.7c-4-4.5-5.8-5.2-10-6.8c-1.1-0.4-2.4-0.9-3.9-1.5l-1.2-0.5l1.2-0.4c10.3-3.9,15.6-13.7,15-27.6
			c-0.5-8.6-0.4-19.8,0.3-29.9c2.2-34.5,25.5-59.8,55.4-60.1c17.3-0.2,35,6.4,48.5,17.9c13.6,11.6,21.8,27.4,22.6,43.2
			c2,35.8-7,69.3-26.9,99.5v0c-9,13.7-20.7,21.7-33.7,23.2C887.5,482.8,886.1,482.9,884.7,482.9z M809.2,416.8c1,0.4,1.9,0.7,2.7,1
			c4.3,1.6,6.2,2.3,10.4,7c2.1,2.4,3.1,5.8,4.1,9.1c0.8,2.9,1.7,5.8,3.3,8c5.8,8.2,11.7,16.2,19.2,23.4c12.5,12,26.6,17.7,39.9,16.2
			c12.7-1.4,24.1-9.3,33-22.8v0c19.7-30,28.7-63.3,26.7-98.9c-1.7-32.2-34.1-60.2-69.5-60.2c-0.2,0-0.4,0-0.6,0
			c-29.3,0.3-52.2,25.2-54.4,59.1c-0.6,10.1-0.8,21.2-0.3,29.7C824.4,402.5,819.2,412.5,809.2,416.8z"/>
	</g>
	<g>
		<ellipse class="st3" cx="615.2" cy="461" rx="8.8" ry="10.7"/>
	</g>
	<g>
		<ellipse class="st3" cx="702.8" cy="461" rx="8.8" ry="10.7"/>
	</g>
	<g>
		<path class="st3" d="M654.9,573c-39.8,0-70.3-8.4-93.1-25.6c-19.8-14.9-30.9-34.3-39.6-51.7c-15.1-0.3-27-6.5-32.9-17.3
			c-4.9-9-4.5-19.7,1.2-27.8c6.8-9.8,19.8-14.1,35.5-11.8c2.7,0.4,4.6,2.9,4.2,5.7c-0.4,2.7-2.9,4.6-5.7,4.2
			c-11.9-1.7-21.3,1.1-25.9,7.7c-3.5,5-3.7,11.6-0.6,17.3c4.5,8.1,14.3,12.5,27,12.1c2-0.1,3.8,1,4.7,2.8
			c18.7,38.4,44.1,75.7,129.1,74.5c50.4-0.7,82.9-11.4,96.6-31.8c9.6-14.3,9.8-33.7,0.5-57.7c-0.7-1.7-0.3-3.6,0.8-5
			c0.4-0.4,9.3-12,4-34.4c-0.6-2.7,1-5.4,3.7-6c2.7-0.6,5.4,1,6,3.7c5,21.4-1.1,35.1-4.3,40.5c9.6,26.2,8.8,47.9-2.5,64.5
			c-15.7,23.2-50.9,35.4-104.7,36.2C657.7,573,656.3,573,654.9,573z"/>
	</g>
	<g>
		<path class="st3" d="M800,506.7c-14.5,0-25.1-3.2-32.2-9.7c-7.2-6.6-10.3-16.4-9.6-29.9c0.1-1,0.4-1.9,0.9-2.6
			c0.3-0.4,0.5-0.7,0.8-1.1c0-1.8,0.9-3.5,2.6-4.4c0.3-0.2,0.6-0.3,0.9-0.5c9.5-13.3,14.6-20.8,17.1-27.2c2.7-7,2.7-13.4,2.5-27.3
			c-0.1-10-2.5-35.8-22.2-58.5c-22.4-25.8-59.2-38.8-109.5-38.8c-98.3,0-154.7,37.9-163,109.6c-2.6,22.1-1.2,31.7,7.7,51.4
			c1.1,2.5,0,5.5-2.5,6.6c-2.5,1.1-5.5,0-6.6-2.5c-9.7-21.5-11.3-32.6-8.5-56.6c4-34.8,18.7-62.6,43.4-82.6
			c29.5-23.8,73.1-35.8,129.6-35.8c53.3,0,92.7,14.2,117,42.3c21.9,25.3,24.6,53.9,24.7,65c0.2,23.4,0,28.9-13,48.3
			c5.2-1,9.8-0.6,14,1.1c12.2,4.9,19,19.8,27.5,45.6c0.5,1.4,0.3,3-0.5,4.2c-0.8,1.3-2.1,2.1-3.6,2.3
			C811,506.3,805.2,506.7,800,506.7z M768.1,469.1c-0.3,9.7,1.8,16.2,6.5,20.6c6.4,5.9,18.3,8.1,35.4,6.5
			c-6.3-18.5-12.1-30.5-19.7-33.6c-4.8-1.9-11.2-0.7-20.2,3.7C769.5,467.2,768.8,468.1,768.1,469.1z"/>
	</g>
	<g>
		<path class="st3" d="M662,539.7c-24.9,0-50.8-11-63.8-27.4c-1.7-2.2-1.3-5.3,0.8-7s5.3-1.3,7,0.8c11.5,14.6,36.3,24.5,58.9,23.6
			c15.1-0.6,36.3-6.1,51.3-28.6c1.5-2.3,4.6-2.9,6.9-1.4c2.3,1.5,2.9,4.6,1.4,6.9c-13.5,20.3-34.6,32.1-59.2,33.1
			C664.3,539.7,663.2,539.7,662,539.7z"/>
	</g>
	<g>
		<ellipse class="st3" cx="660.8" cy="489.3" rx="8.1" ry="3.3"/>
	</g>
	<g>
		<path class="st3" d="M467.1,526.4c-7.5,0-15.9-1.6-25-5.5c-2.3-1-3.5-3.5-2.9-5.9c6.5-24.3,20.8-40.8,38.1-44.2
			c10.2-2,20,1.3,25.6,8.7c6.6,8.8,5.8,21.5-2.1,31.7C494.4,519.3,482.8,526.4,467.1,526.4z M450.1,513.3c21,7.3,36,0.4,42.8-8.3
			c5.2-6.6,6-14.3,2-19.5c0,0,0,0,0,0c-3.3-4.4-9.2-6.2-15.7-4.9C474.4,481.5,458.7,486.6,450.1,513.3z"/>
	</g>
	<g>
		<path class="st3" d="M542.8,450.3c-1.4,0-2.9-0.6-3.9-1.8c-1.8-2.1-1.4-5.3,0.7-7c50-41.2,103.5-40.9,132.8-36.4
			c5.5-8.2,7.7-13.1,10.4-19.1c1.6-3.5,3.4-7.5,6-12.6c0.8-1.6,2.4-2.6,4.2-2.7c1.8-0.1,3.5,0.8,4.4,2.3c0.4,0.7,9.7,15.8,12.1,33.2
			c16.5,2.9,18.6,3.8,33,10l2.2,1c2.5,1.1,3.7,4,2.6,6.6c-1.1,2.5-4,3.7-6.6,2.6l-2.2-1c-15.3-6.6-15.6-6.8-34.4-10
			c-2.3-0.4-4-2.3-4.1-4.6c-0.7-9.1-3.9-17.9-6.7-24.1c-0.5,1.1-1,2.2-1.5,3.3c-3,6.8-5.7,12.7-13.1,23.3c-1.1,1.6-3,2.4-5,2.1
			c-26.8-4.6-79.2-6.4-128,33.7C545,449.9,543.9,450.3,542.8,450.3z"/>
	</g>
</g>
<g id="Layer_4">
	<g>
		<g>
			<path class="st3" d="M853.9,336.9l-0.6,10.7l14.6,0.8l0.6-10.7c0.1-1.1,1-1.9,2.1-1.8l0,0c1.1,0.1,1.9,1,1.8,2.1l-1.4,26.4
				c-0.1,1.1-1,1.9-2.1,1.8l0,0c-1.1-0.1-1.9-1-1.8-2.1l0.7-12.2l-14.6-0.8l-0.7,12.2c-0.1,1.1-1,1.9-2.1,1.8l0,0
				c-1.1-0.1-1.9-1-1.8-2.1l1.4-26.4c0.1-1.1,1-1.9,2.1-1.8l0,0C853.2,334.9,854,335.8,853.9,336.9z"/>
		</g>
		<g>
			<path class="st3" d="M880.4,356.5c-0.2,5.4,3.1,7.7,7,8c2,0.1,3.4-0.1,4.6-0.4c0.8-0.2,1.6,0.3,1.8,1.2l0,0
				c0.1,0.7-0.3,1.5-1,1.7c-1.4,0.4-3.4,0.7-6,0.5c-6.7-0.4-10.5-5-10.1-11.5c0.4-6.6,4.5-11.5,10.8-11.2c7.1,0.4,8.6,6.7,8.4,10.7
				l0,0c-0.1,1-0.9,1.8-2,1.7L880.4,356.5z M892.1,354.3c0.2-2.5-0.7-6.5-5.1-6.7c-4-0.2-6,3.4-6.4,6.1L892.1,354.3z"/>
		</g>
		<g>
			<path class="st3" d="M904.9,337L904.9,337c1.1,0.1,1.9,1,1.9,2.1l-1.5,27.9c-0.1,1.1-1,1.9-2.1,1.9l0,0c-1.1-0.1-1.9-1-1.9-2.1
				l1.5-27.9C902.8,337.8,903.8,336.9,904.9,337z"/>
		</g>
		<g>
			<path class="st3" d="M911.5,355.7c0.1-2,0.2-3.7,0.2-5.3c0-1,0.9-1.8,1.9-1.7l0,0c0.9,0.1,1.7,0.8,1.7,1.8v2h0.1
				c1.8-2.6,4.4-4,8-3.8c5.3,0.3,9,4.9,8.6,11.6c-0.4,7.8-5.4,11.4-10.5,11.1c-2.9-0.2-5.3-1.6-6.5-3.8h-0.1l-0.5,10
				c-0.1,1-0.9,1.7-1.9,1.7h-0.3c-1-0.1-0.7-1.9-0.7-2.9V355.7z M915.1,361.7c0,0.6,0,1.1,0.1,1.6c0.6,2.8,2.8,4.8,5.7,4.9
				c4.2,0.2,6.8-3.1,7.1-8c0.2-4.4-1.9-8.2-6-8.4c-2.7-0.1-5.3,1.6-6.2,4.6c-0.2,0.5-0.3,1.1-0.4,1.6L915.1,361.7z"/>
		</g>
		<g>
			<path class="st3" d="M849.3,407c0.1-1.5,0.1-2.8,0.1-4.1c0-1,0.8-1.8,1.8-1.7l0,0c0.9,0,1.6,0.8,1.6,1.7v1.9h0.1
				c1.3-2,3.5-3.8,7-3.6c3,0.2,5.1,2.1,5.9,4.7h0.1c0.7-1.2,1.6-2.1,2.6-2.7c1.4-0.9,2.8-1.4,4.9-1.3c2.9,0.2,7,2.3,6.6,9.8
				l-0.6,11.1c-0.1,1-0.9,1.7-1.8,1.6h-0.4c-1-0.1-1.7-0.9-1.6-1.8l0.6-10.6c0.2-4.2-1.2-6.8-4.4-7c-2.2-0.1-4.1,1.4-4.9,3.3
				c-0.2,0.5-0.4,1.2-0.4,2l-0.6,11.7c-0.1,1-0.9,1.7-1.8,1.6h-0.4c-1-0.1-1.7-0.9-1.6-1.8l0.6-11.3c0.2-3.5-1.2-6.1-4.2-6.2
				c-2.5-0.1-4.4,1.7-5.1,3.7c-0.3,0.6-0.4,1.2-0.4,1.9l-0.6,11.4c-0.1,1-0.9,1.7-1.8,1.6h-0.4c-1-0.1-1.7-0.9-1.6-1.8L849.3,407z"
				/>
		</g>
		<g>
			<path class="st3" d="M887.6,416.9c-0.2,5.4,3.1,7.7,7,8c2,0.1,3.4-0.1,4.6-0.4c0.8-0.2,1.6,0.3,1.8,1.2l0,0
				c0.1,0.7-0.3,1.5-1,1.7c-1.4,0.4-3.4,0.7-6,0.5c-6.7-0.4-10.5-5-10.1-11.5c0.4-6.6,4.5-11.5,10.8-11.2c7.1,0.4,8.6,6.7,8.4,10.7
				c0,0.2,0,0.3,0,0.5c-0.1,0.8-0.8,1.3-1.5,1.3L887.6,416.9z M899.4,414.7c0.2-2.5-0.7-6.5-5.1-6.7c-4-0.2-6,3.4-6.4,6.1
				L899.4,414.7z"/>
		</g>
		<g>
			<path class="st3" d="M908.8,425.5c0.2-1.6,1.5-2.6,3-2.4c1.6,0.2,2.5,1.5,2.3,3.1s-1.4,2.6-3,2.4S908.6,427.1,908.8,425.5z
				 M911,417.2l1.8-17.3c0.1-1.2,1.2-2,2.3-1.9l1,0.1c1.2,0.1,2,1.2,1.8,2.4l-2.8,17.2c-0.2,1.1-1.2,1.9-2.3,1.7l0,0
				C911.7,419.4,910.9,418.4,911,417.2z"/>
		</g>
	</g>
</g>
<g>
	<path class="st3" d="M500.5,651.3c-6.1-32.2-31.8-57-67.8-44.9c-2.2,0.7-3.9,6.3-4.6,3.9c-4-14.1-20.2-16.8-30-13.3
		c-10.3,3.6-13.9,13.1-15,23.3c-3.1,28.6-7.2,57.2-8.5,85.9c-1.1,25,0,50.3,2.1,75.3c1.3,15.2,15.5,20.2,27.7,11.8
		c2.3-1.6,0.3-8,2.7-7c26.5,11,51.4-2.4,66.8-22.1c20.3-25.9,27.5-56.4,29.4-90.5C502.5,667.3,502.1,659.2,500.5,651.3z
		 M455.6,743.9c-4.2,10.1-12,25.1-27,29c-13.7,3.5-19.7,0.4-18.1-13.7c4.1-36.2,9-72.2,13.6-108.4c0.5-4,1.4-8,1.5-12
		c0.3-8.3,4.3-16.7,13.1-18.3c9.2-1.7,12.5,1.7,18.4,8.5c11.7,13.5,12.4,36.5,12.4,53C467.9,709.4,464.4,722.5,455.6,743.9z
		 M576.8,637.2c-13.6-3.9-31.5-6.7-46.7-0.7c-6.3,2.4-14.9,11.1-16.4,18.4c-7.3,34.7-8.6,69.9-2,105c1.8,9.8,4.7,19.9,16.3,21.8
		c12.4,2,24.5,1.2,36.7-6c3-1.4,5.4-7.4-0.2-6.7c-1.6,0.2-3.2,0.1-4.8,0.4c-20,3.5-21.7,6.9-21.7-9.9c0-2.1,0-14.2,0-16.2
		c0.2-9.8-0.5-11,11.6-10.1c3.1,0.2,5.9,0.3,8.3-0.1c2-0.3,3.7-3.1,3.7-4.7c0-1.5-1.7-2.9-3.7-3.5c-1.7-0.5-4.7-0.7-7.2-0.6
		c-15.9,0.5-11.9-3.7-11.3-13.2c0.7-10.5,0.8-21.1,1-31.6c0.9-40.5,5.6-30.9,37-31.4h0.1C585.3,649.3,583.5,639.1,576.8,637.2z
		 M662.1,705.6c1.4-4,13.5-13.2,18-19.4c1.5-2.2,2.5-7.3,1.3-8.4c-2.2-2-6.6-3.4-9.4-2.6c-4.5,1.4-8.8,4.3-12.3,7.4
		c-10.5,9.4-20.3,23.3-31.5,33.9c2.8-28.8,2.8-60.9,6-89c1.1-9.9-1-15.6-9.2-19.2c-18-7.9-34.5,2.2-34.5,22
		c-0.1,38.5,0.5,77,1.3,115.5c0.2,9.7,1.2,19.6,3.9,28.8c1.4,4.9,7.4,11.8,11.3,11.7c5-0.1,11.9-5.1,14.4-9.8
		c3.2-6,3.6-25.8,3.3-32.9c6.9-9.2,6.9-9.2,16.1-17.5c2.3,8.2,5.8,19.5,8,26.3c2.7,8.3,4.5,16.7,15.1,13.1
		C681.9,759.4,676.6,723.5,662.1,705.6z M737.8,735.1c0.2,6,2.1,26.9,3.8,32.6c2.5,8.2-0.2,21.6,13.1,21.3
		c14-0.3,13.6-13.6,13.9-23.2c1.4-36.5,1-73,1.2-109.4c0-9.6-1.2-19.3-3.5-28.7c-2.1-8.4-9-10.9-17.1-10.2
		c-8.2,0.7-13.9,4.8-15,13.3c-0.7,5.2-0.7,10.5-0.5,15.8c1,24.2,2.1,48.4,3.2,73.9c-7.7,0.7-14.8,1.4-26.1,2.5c0-27.7,0-53.6,0-79.4
		c0-7.6-0.6-15.6-10.7-15.9c-10-0.3-10.8,8-12.2,15.2c-0.4,2-0.5,4-0.4,6.1c0.9,29.6,1.3,59.2,3,88.7c0.8,13.2,3.8,28.4,6.8,41.4
		c0,0.1,0.1,0.3,0.1,0.4c2.1,7,12.1,7.3,14.7,0.5c0.4-1.1,0.7-2,0.8-2.8c1.3-7.9,0.5-31.1-0.2-39.2L737.8,735.1z M792.1,744.5
		c15.8,18.1,34.6,20.2,48.9,1.1c13.6-18.3,13.5-50.3-0.2-68.6c-9.8-13-26.1-16.9-41.1-11.4C777,674,778,728.4,792.1,744.5z
		 M822.1,738.9c-2.2,6.4-6.3,6.5-8.3,6.6s-5.4-3.5-6.8-5.4c-10.9-15-10.8-33.6-6.3-51.5c1.2-4.9,3.3-8.8,7.8-8.8c6.7,0,8,4.4,10,7
		C826.2,696.8,826.4,726.4,822.1,738.9z M939.5,668.1c-5.5-22.3-23.6-25.2-46.8-10.1c-9.4-18-26.3-19.9-33.6-3.9
		c-2.3,5.2-2.7,11.6-1.6,17.3c4.5,25.1,10,49.1,15.4,74c1.8,8.3,3.6,14.4,14.3,13.1c10.8-1.3,10.9-7.7,11-15.3
		c0.1-19.5-0.5-39-0.7-58.4c-0.1-9.3,3.2-20.1,12.6-22.1c9.1-2,11.2,8.9,14.2,15.7c1.2,2.8,5.3,6.9,6.9,6.5c3.3-1,6.8-4.1,8.5-7.3
		C940.9,675.1,940.3,671.1,939.5,668.1z"/>
</g>
</svg>
