<?xml version="1.0" encoding="UTF-8" standalone="no"?>
<!-- Created with Inkscape (http://www.inkscape.org/) -->

<svg
   width="129.63931mm"
   height="100.49083mm"
   viewBox="0 0 129.63931 100.49083"
   version="1.1"
   id="svg5"
   xml:space="preserve"
   inkscape:version="1.2.1 (9c6d41e410, 2022-07-14)"
   sodipodi:docname="dino_portal.svg"
   xmlns:inkscape="http://www.inkscape.org/namespaces/inkscape"
   xmlns:sodipodi="http://sodipodi.sourceforge.net/DTD/sodipodi-0.dtd"
   xmlns="http://www.w3.org/2000/svg"
   xmlns:svg="http://www.w3.org/2000/svg"><sodipodi:namedview
     id="namedview7"
     pagecolor="#ffffff"
     bordercolor="#111111"
     borderopacity="1"
     inkscape:showpageshadow="0"
     inkscape:pageopacity="0"
     inkscape:pagecheckerboard="1"
     inkscape:deskcolor="#d1d1d1"
     inkscape:document-units="mm"
     showgrid="false"
     inkscape:zoom="1.28"
     inkscape:cx="136.32813"
     inkscape:cy="282.8125"
     inkscape:window-width="2560"
     inkscape:window-height="1377"
     inkscape:window-x="1912"
     inkscape:window-y="-8"
     inkscape:window-maximized="1"
     inkscape:current-layer="svg5" /><defs
     id="defs2" /><path
     class="st2"
     d="m 24.895428,88.631012 c 10.40454,11.809378 33.45257,8.011935 43.04494,2.941375"
     id="path631"
     style="fill:none;fill-opacity:1;stroke:#000000;stroke-width:1.09753;stroke-miterlimit:10"
     inkscape:export-filename="..\..\..\..\..\Documents\Downloads\path631.png"
     inkscape:export-xdpi="300"
     inkscape:export-ydpi="300" /><path
     class="st3"
     d="m 12.866548,40.076494 c 0,0 -9.8118701,-17.889661 3.8633,-29.699032 1.73409,-1.4926351 3.46817,-2.8974671 5.72907,-4.2144971 12.6874,-7.3753685 33.18917,-6.03638846 38.87435,-4.587656 6.89246,1.734091 -0.0439,4.214497 -2.89747,4.653508"
     id="path645"
     style="fill:#f2d6a8;fill-opacity:1;stroke:#000000;stroke-width:0.878017;stroke-linecap:round;stroke-miterlimit:10" /><path
     style="fill:#f2d6a8;fill-opacity:1;stroke:none;stroke-width:0.219505px;stroke-linecap:butt;stroke-linejoin:miter;stroke-opacity:1"
     d="m 12.866548,40.076493 50.48581,-3.717421 0.38352,-4.507345 -4.26841,-15.657382 -10.48975,-6.5954881 -36.11117,30.4776361"
     id="path5114" /><path
     class="st1"
     d="m 80.430208,41.876436 c 0,0 20.150562,-20.084712 20.150562,-12.336183 -3.358422,9.833825 -3.116972,7.068062 -3.665732,10.645994 -0.52681,3.46818 6.431492,-3.182823 6.431492,-3.182823 4.69741,-5.553477 13.98248,-10.667945 9.50457,-3.775487 -2.4804,3.841338 -0.43901,5.421775 5.55348,0 4.41205,-3.994992 13.32395,-6.475399 9.94358,-3.687684 -3.35843,2.787713 -14.18003,16.023868 -9.50457,14.026371 3.95109,-1.690188 9.06555,-4.873012 2.91942,0.878021 -4.03889,3.797437 -11.01457,10.448032 -14.08764,13.235746"
     id="path637"
     style="fill:#c66e32;fill-opacity:1;stroke:#000000;stroke-width:1.09753;stroke-linecap:round;stroke-miterlimit:10"
     sodipodi:nodetypes="cccccccccc" /><path
     class="st3"
     d="m 99.527148,58.624671 c 0,0 4.302292,-2.656011 6.387592,1.799941 2.0853,4.434004 1.16338,8.6924 3.29257,5.312022 1.18819,-1.891876 0.60712,-5.07153 -0.14486,-7.624659 -0.42228,-1.433692 -3.63765,-6.802238 -5.63994,-6.30675 -0.32349,-0.05584 -2.09276,2.450289 -3.427132,2.917945 -1.19067,0.804048 -1.51535,0.481276 -2.56149,0.617511"
     id="path643"
     style="fill:#e6c73a;fill-opacity:1;stroke:#000000;stroke-width:0.878017;stroke-linecap:round;stroke-miterlimit:10"
     sodipodi:nodetypes="cccsccc" /><path
     class="st2"
     d="m 22.458708,90.726222 c 7.0503,11.852378 38.4261,11.406098 48.48888,3.568025 0.0515,-0.0401 -1.40664,-1.31074 -3.00722,-2.72186 -27.17018,10.876093 -43.04494,-2.941375 -43.04494,-2.941375"
     id="path629"
     style="fill:#563626;fill-opacity:1;stroke:#000000;stroke-width:1.09759;stroke-miterlimit:10;stroke-dasharray:none"
     sodipodi:nodetypes="cscc" /><path
     class="st3"
     d="m 97.200398,54.936986 c 0,0 2.06334,1.426782 4.851062,-2.107248 3.51207,-4.477903 0.79021,7.199765 7.17781,5.026665 7.13391,-2.436506 4.78521,1.777991 8.7802,4.126695 8.1769,4.83764 2.34734,-2.243777 -2.4051,-7.015603 -0.0846,-0.08493 -0.83918,-1.268937 -1.32652,-2.014356 -0.10158,-0.155371 -4.00051,0.148338 -6.36565,-1.14909 -2.32856,-1.277356 -3.53288,-4.557287 -5.6508,-4.89307 -0.17468,-0.02769 -7.356592,4.813697 -7.544852,4.828833"
     id="path641"
     style="fill:#e6c73a;fill-opacity:1;stroke:#000000;stroke-width:0.878017;stroke-linecap:round;stroke-miterlimit:10"
     sodipodi:nodetypes="ccccssssc" /><path
     class="st3"
     d="m 87.542168,46.025081 c 0,0 0.43901,-2.480407 3.66573,-1.053624 3.22673,1.426782 -0.15365,6.014438 4.54376,3.270625 4.697412,-2.743813 8.494842,-4.543755 11.128902,-0.702416 2.63406,3.819388 2.34871,4.873012 5.86079,2.963318 3.51208,-1.909694 2.78771,2.326754 5.55347,2.480407 2.78772,0.153654 7.02417,-3.994991 7.17782,-2.063347 0.15366,1.909694 0,3.819388 -2.78771,4.982765 -2.78772,1.163376 -3.18283,2.831614 -7.44122,-1.29508 -4.2584,-4.126696 -2.65601,5.399824 -8.07779,-1.185328 -5.42177,-6.585151 -4.3901,-5.619329 -7.902182,-2.436506 -3.51208,3.182823 -7.25024,0.377766 -7.25024,0.377766"
     id="path639"
     style="fill:#e6c73a;fill-opacity:1;stroke:#000000;stroke-width:0.878017;stroke-linecap:round;stroke-miterlimit:10"
     sodipodi:nodetypes="csscsccssssc" /><path
     class="st1"
     d="m 7.7301379,44.444645 c -0.76827,1.492635 -5.90469,9.307014 -6.36565,10.997203 2.78771,11.414265 5.59738,20.479824 21.2919901,32.267244 5.48763,-10.97525 38.41338,-8.99971 48.29111,3.29257 0,0 30.072192,-17.12139 29.633182,-30.072188 C 94.741928,45.915329 69.837038,33.94917 37.692578,32.986482"
     id="path625"
     style="fill:#af4433;fill-opacity:1;stroke:#000000;stroke-width:1.09753;stroke-linecap:round;stroke-miterlimit:10"
     sodipodi:nodetypes="cccccc" /><path
     class="st2"
     d="m 1.0571779,45.608021 c -1.66824002,2.1292 1.11948,6.914409 3.29258,6.431498 1.64628,-0.373158 3.90719,-4.324249 3.73158,-6.651002 -0.1756,-2.414556 -4.87301,-2.524308 -7.02416,0.219504 z"
     id="path633"
     style="fill:#f2d6a8;fill-opacity:1;stroke:#000000;stroke-width:1.09753;stroke-miterlimit:10" /><path
     style="fill:#af4433;stroke:none;stroke-width:0.264583px;stroke-linecap:butt;stroke-linejoin:miter;stroke-opacity:1;fill-opacity:1"
     d="M 7.7301377,44.444644 29.97233,53.226726 44.636666,33.372149 37.692578,32.986482 16.918186,37.773387 Z"
     id="path583" /><path
     class="st1"
     d="M 37.692578,32.986482 C 25.466138,33.579145 14.403088,37.157077 7.7301379,44.444645"
     id="path623"
     style="fill:#af4433;fill-opacity:1;stroke:#000000;stroke-width:1.09753;stroke-linecap:round;stroke-miterlimit:10" /><path
     class="st2"
     d="m 38.131578,30.528025 c -0.54876,3.95109 -0.3512,6.475399 2.52431,10.206984 1.40483,1.821892 5.00472,1.251179 6.80466,-0.329257 2.89746,-2.546258 2.06335,-8.889954 -1.75604,-10.975252 -2.3487,-1.273129 -7.19977,-1.602387 -7.57293,1.097525 z"
     id="path635"
     style="fill:#f2d6a8;fill-opacity:1;stroke:#000000;stroke-width:1.09753;stroke-miterlimit:10" /><path
     class="st3"
     d="m 44.936248,7.9190059 c 2.656,-2.019447 14.70683,-3.863289 20.74322,1.536535 0.92192,0.8341191 8.27534,6.2778441 7.52902,9.4387171 -0.59267,2.524307 -8.18754,1.997495 -10.75574,1.75604"
     id="path649"
     style="fill:#f2d6a8;fill-opacity:1;stroke:#000000;stroke-width:0.878017;stroke-linecap:round;stroke-miterlimit:10" /><path
     class="st3"
     d="m 63.725868,35.730294 c -0.3512,2.853566 1.49264,-14.245877 -4.2584,-19.535949"
     id="path647"
     style="fill:#f2d6a8;fill-opacity:1;stroke:#000000;stroke-width:0.878017;stroke-linecap:round;stroke-miterlimit:10" /><ellipse
     transform="rotate(-67.337824)"
     class="st4"
     cx="-6.8571248"
     cy="25.642202"
     rx="3.7316155"
     ry="1.646301"
     id="ellipse651"
     style="stroke:#000000;stroke-width:0.878026;stroke-linecap:round;stroke-miterlimit:10" /><ellipse
     transform="rotate(-84.524314)"
     class="st4"
     cx="-13.706003"
     cy="41.805744"
     rx="4.3240895"
     ry="1.9096234"
     id="ellipse653"
     style="stroke:#000000;stroke-width:0.877984;stroke-linecap:round;stroke-miterlimit:10" /><path
     class="st4"
     d="M 21.405298,26.357429"
     id="path655"
     style="stroke:#000000;stroke-width:0.878017;stroke-linecap:round;stroke-miterlimit:10" /><path
     class="st4"
     d="M 21.405298,26.357429"
     id="path657"
     style="stroke:#000000;stroke-width:0.878017;stroke-linecap:round;stroke-miterlimit:10" /><path
     class="st3"
     d="m 21.405298,26.357429 c 0,0 2.56821,4.060844 5.04862,0 0.83412,1.207278 2.04139,3.577933 5.15837,0.899971"
     id="path659"
     style="fill:none;stroke:#000000;stroke-width:0.878017;stroke-linecap:round;stroke-miterlimit:10" /><path
     class="st3"
     d="m 23.600348,28.11347 c -0.21951,1.75604 -0.72437,5.707131 2.89747,5.377874 3.62183,-0.329258 3.64378,-1.997497 3.46818,-5.20227"
     id="path661"
     style="fill:none;stroke:#000000;stroke-width:0.878017;stroke-linecap:round;stroke-miterlimit:10" /><path
     class="st5"
     d="m 26.366118,26.291577 c -0.96583,-0.614613 -0.48292,-0.175603 -1.8658,-2.085297 0.54877,-0.943872 2.69991,-0.219506 3.07307,0.504861 -0.24145,0.526812 -0.41705,0.790218 -1.20727,1.580436 z"
     id="path663"
     style="stroke:#000000;stroke-width:0.878017;stroke-linecap:round;stroke-linejoin:round;stroke-miterlimit:10" /><path
     style="fill:#563626;fill-opacity:1;stroke:#000000;stroke-width:1.09759;stroke-linecap:butt;stroke-linejoin:round;stroke-dasharray:none;stroke-opacity:1"
     d="m 22.458708,90.726222 c 0,0 5.81972,-7.80863 23.13205,-6.98649 18.70248,0.88817 25.35683,10.554515 25.35683,10.554515 v -3.292585 c 0,0 -6.4579,-9.39296 -26.43114,-10.40927 -18.80531,-0.95689 -21.85997,7.1167 -21.85997,7.1167 z"
     id="path10130"
     sodipodi:nodetypes="csccscc" /><path
     style="fill:#000000;fill-opacity:1;stroke:none;stroke-width:0.219505px;stroke-linecap:butt;stroke-linejoin:miter;stroke-opacity:1"
     d="m 24.895428,88.631012 c 0,0 7.74384,6.250105 20.62047,7.060435 10.69016,0.67274 22.42447,-4.11906 22.42447,-4.11906 0,0 -7.0972,-7.161005 -22.34961,-7.832655 -14.94684,-0.65819 -20.69533,4.89128 -20.69533,4.89128 z"
     id="path409"
     sodipodi:nodetypes="cscsc" /></svg>
