<?xml version="1.0" encoding="UTF-8" standalone="no"?>
<!-- Created with Inkscape (http://www.inkscape.org/) -->

<svg
   width="140.19363mm"
   height="113.66467mm"
   viewBox="0 0 140.19363 113.66467"
   version="1.1"
   id="svg5"
   xml:space="preserve"
   inkscape:version="1.2.1 (9c6d41e410, 2022-07-14)"
   sodipodi:docname="logo_for_bin.svg"
   xmlns:inkscape="http://www.inkscape.org/namespaces/inkscape"
   xmlns:sodipodi="http://sodipodi.sourceforge.net/DTD/sodipodi-0.dtd"
   xmlns:xlink="http://www.w3.org/1999/xlink"
   xmlns="http://www.w3.org/2000/svg"
   xmlns:svg="http://www.w3.org/2000/svg"><sodipodi:namedview
     id="namedview7"
     pagecolor="#ffffff"
     bordercolor="#111111"
     borderopacity="1"
     inkscape:showpageshadow="0"
     inkscape:pageopacity="0"
     inkscape:pagecheckerboard="1"
     inkscape:deskcolor="#d1d1d1"
     inkscape:document-units="mm"
     showgrid="false"
     inkscape:zoom="1.8101934"
     inkscape:cx="185.89174"
     inkscape:cy="240.30582"
     inkscape:window-width="2560"
     inkscape:window-height="1377"
     inkscape:window-x="1912"
     inkscape:window-y="-8"
     inkscape:window-maximized="1"
     inkscape:current-layer="svg5" /><defs
     id="defs2"><inkscape:path-effect
       effect="powermask"
       id="path-effect1689"
       is_visible="true"
       lpeversion="1"
       uri="#mask-powermask-path-effect1689"
       invert="false"
       hide_mask="false"
       background="true"
       background_color="#ffffffff" /><linearGradient
       inkscape:collect="always"
       id="linearGradient1612"><stop
         style="stop-color:#000000;stop-opacity:1;"
         offset="0"
         id="stop1608" /><stop
         style="stop-color:#272440;stop-opacity:1;"
         offset="1"
         id="stop1610" /></linearGradient><inkscape:path-effect
       effect="powermask"
       id="path-effect4282"
       is_visible="true"
       lpeversion="1"
       uri="#mask-powermask-path-effect4282"
       invert="false"
       hide_mask="false"
       background="true"
       background_color="#ffffffff" /><mask
       maskUnits="userSpaceOnUse"
       id="mask-powermask-path-effect4282" /><linearGradient
       inkscape:collect="always"
       xlink:href="#linearGradient2440"
       id="linearGradient2442"
       x1="70.096817"
       y1="0.8198576"
       x2="70.096817"
       y2="113.66467"
       gradientUnits="userSpaceOnUse"
       gradientTransform="translate(-2.7819214e-6)" /><linearGradient
       inkscape:collect="always"
       id="linearGradient2440"><stop
         style="stop-color:#b97b69;stop-opacity:1;"
         offset="0"
         id="stop2436" /><stop
         style="stop-color:#272440;stop-opacity:1;"
         offset="1"
         id="stop2438" /></linearGradient><filter
       id="mask-powermask-path-effect4282_inverse"
       inkscape:label="filtermask-powermask-path-effect4282"
       style="color-interpolation-filters:sRGB"
       height="100"
       width="100"
       x="-50"
       y="-50"><feColorMatrix
         id="mask-powermask-path-effect4282_primitive1"
         values="1"
         type="saturate"
         result="fbSourceGraphic" /><feColorMatrix
         id="mask-powermask-path-effect4282_primitive2"
         values="-1 0 0 0 1 0 -1 0 0 1 0 0 -1 0 1 0 0 0 1 0 "
         in="fbSourceGraphic" /></filter><clipPath
       clipPathUnits="userSpaceOnUse"
       id="clipPath667"><path
         id="path669"
         style="fill:#cc0000;fill-opacity:1;fill-rule:nonzero;stroke:none;stroke-width:0.352777"
         d="M 3.8628132,0 C 1.7200435,0 0.02635498,2.0365889 0.02635498,4.6302083 V 46.566667 c 0,1.190622 0.34416503,2.329288 1.00562342,3.201355 0.7397742,1.00612 1.8262278,1.561145 2.9367716,1.561145 2.2228498,0 3.9423951,-2.090812 3.9423951,-4.788855 V 32.17323 H 12.11864 l 10.741463,17.277498 c 0.739775,1.164519 1.904528,1.878439 3.121257,1.878439 1.350786,0 2.513561,-0.767395 3.255098,-2.090312 0.926039,-1.719789 0.87358,-3.942646 -0.158646,-5.55625 L 19.895943,29.236458 c 1.852081,-1.270703 3.361304,-2.962629 4.525822,-5.027083 1.401232,-2.56575 2.142505,-5.768377 2.142505,-9.498645 0,-2.778122 -0.396609,-5.1335391 -1.216463,-6.98562 C 24.526188,5.8469226 23.363395,4.23335 21.880318,2.990515 20.557403,1.8782082 19.04998,1.0841889 17.382402,0.63510335 15.794903,0.21212278 13.864535,0 11.589473,0 Z M 7.9111451,8.7048951 H 7.9375 11.932605 c 1.138413,0 2.116668,0.1066853 2.910417,0.3172931 0.715433,0.1862669 1.270474,0.5027943 1.773535,0.9518801 0.633588,0.5570357 1.058333,1.2182647 1.322916,2.0381187 0.290689,0.899935 0.449069,1.958538 0.449069,3.149161 0,1.63971 -0.15838,3.015073 -0.449069,4.047299 -0.292452,0.952147 -0.715702,1.825747 -1.297078,2.567285 -0.583141,0.713668 -1.270457,1.216731 -2.090312,1.455208 -0.952147,0.316795 -2.116667,0.449068 -3.439583,0.449068 H 7.9111451 Z"
         inkscape:original-d="M 3.8628132,0 C 1.7200435,0 0.02635498,2.0365889 0.02635498,4.6302083 V 46.566667 c 0,1.190622 0.34416503,2.329288 1.00562342,3.201355 0.7397742,1.00612 1.8262278,1.561145 2.9367716,1.561145 2.2228498,0 3.9423951,-2.090812 3.9423951,-4.788855 V 32.17323 H 12.11864 l 10.741463,17.277498 c 0.739775,1.164519 1.904528,1.878439 3.121257,1.878439 1.350786,0 2.513561,-0.767395 3.255098,-2.090312 0.926039,-1.719789 0.87358,-3.942646 -0.158646,-5.55625 L 19.895943,29.236458 c 1.852081,-1.270703 3.361304,-2.962629 4.525822,-5.027083 1.401232,-2.56575 2.142505,-5.768377 2.142505,-9.498645 0,-2.778122 -0.396609,-5.1335391 -1.216463,-6.98562 C 24.526188,5.8469226 23.363395,4.23335 21.880318,2.990515 20.557403,1.8782082 19.04998,1.0841889 17.382402,0.63510335 15.794903,0.21212278 13.864535,0 11.589473,0 Z M 7.9111451,8.7048951 H 7.9375 11.932605 c 1.138413,0 2.116668,0.1066853 2.910417,0.3172931 0.715433,0.1862669 1.270474,0.5027943 1.773535,0.9518801 0.633588,0.5570357 1.058333,1.2182647 1.322916,2.0381187 0.290689,0.899935 0.449069,1.958538 0.449069,3.149161 0,1.63971 -0.15838,3.015073 -0.449069,4.047299 -0.292452,0.952147 -0.715702,1.825747 -1.297078,2.567285 -0.583141,0.713668 -1.270457,1.216731 -2.090312,1.455208 -0.952147,0.316795 -2.116667,0.449068 -3.439583,0.449068 H 7.9111451 Z" /></clipPath><clipPath
       clipPathUnits="userSpaceOnUse"
       id="clipPath672"><path
         id="path674"
         style="fill:#cc0000;fill-opacity:1;fill-rule:nonzero;stroke:none;stroke-width:0.352777"
         d="m 37.597188,0 c -2.222849,0 -3.96875,2.1169187 -3.96875,4.7888549 V 30.427083 c 0,3.730268 0.29019,6.959233 0.873332,9.577195 0.607483,2.699803 1.639713,5.055221 3.042708,6.985619 1.268939,1.745895 2.884562,3.122557 4.788855,4.022492 1.878187,0.898173 4.048816,1.348756 6.534484,1.348756 2.409118,0 4.551664,-0.422484 6.403745,-1.270207 1.878187,-0.84596 3.518151,-2.223121 4.921146,-4.075202 1.429102,-1.878187 2.461578,-4.285779 3.069064,-7.090008 0.583139,-2.699806 0.873331,-5.900417 0.873331,-9.47229 V 4.8146933 c 0,-1.1906239 -0.34417,-2.3270092 -1.005623,-3.2008383 C 62.415812,0.58162801 61.357476,0 60.219063,0 57.996214,0 56.250313,2.1169187 56.250313,4.7888549 V 30.904058 c 0,2.27506 -0.132561,4.179589 -0.371035,5.634797 -0.236715,1.429102 -0.63359,2.699311 -1.190625,3.783748 -0.58138,1.164519 -1.32292,1.984627 -2.248961,2.539897 -0.952146,0.55527 -2.142736,0.820105 -3.54397,0.820105 -1.429099,0 -2.567532,-0.265083 -3.51968,-0.84646 -0.952146,-0.555273 -1.667582,-1.376892 -2.248959,-2.513542 -0.55527,-1.112308 -0.952148,-2.328791 -1.190625,-3.677811 -0.238477,-1.402996 -0.37052,-3.387392 -0.37052,-5.900931 V 4.7888549 C 41.565938,3.5982312 41.222806,2.4613301 40.561347,1.5875 39.81981,0.58137901 38.735601,0 37.597188,0 Z" /></clipPath><clipPath
       clipPathUnits="userSpaceOnUse"
       id="clipPath677"><path
         id="path679"
         style="fill:#cc0000;fill-opacity:1;fill-rule:nonzero;stroke:none;stroke-width:0.352777"
         d="M 83.476042,0 C 80.856315,0 78.55513,2.0908131 77.707403,5.1857299 L 66.939583,45.270105 c -0.132289,0.476954 -0.184486,0.980017 -0.184486,1.455208 0,2.593621 1.691931,4.630209 3.836461,4.630209 1.691926,0 3.147351,-1.297313 3.650422,-3.22771 l 2.645833,-10.212298 h 12.938229 l 2.619478,10.106361 c 0.529169,1.984372 2.037088,3.333647 3.756877,3.333647 1.112308,0 2.142522,-0.529667 2.884061,-1.507919 0.978252,-1.270704 1.296822,-3.096419 0.87385,-4.788339 L 89.244683,5.1857299 C 88.847803,3.7044175 88.132102,2.4613479 87.153853,1.5353068 86.095515,0.52918582 84.79895,0 83.476042,0 Z m -0.132292,14.419792 4.153236,14.843021 h -8.306472 z" /></clipPath><clipPath
       clipPathUnits="userSpaceOnUse"
       id="clipPath715"><path
         id="path717"
         style="fill:#cc0000;fill-opacity:1;fill-rule:nonzero;stroke:none;stroke-width:0.352777"
         d="m 109.08843,0 c -1.5614,0 -3.04297,0.81960778 -4.0752,2.2226034 -0.95215,1.2968098 -1.48105,2.9628976 -1.48105,4.7366616 v 39.819793 c 0,1.136648 0.34264,2.22082 0.95188,3.068545 0.71367,0.952146 1.7464,1.507919 2.83084,1.507919 2.14276,0 3.8101,-2.010714 3.8101,-4.576464 v -25.10958 l 6.08542,25.4 0.0264,0.07855 0.0258,0.0801 c 0.26458,0.79375 0.7157,1.455227 1.29708,1.932183 0.63535,0.555271 1.42885,0.845942 2.2226,0.845942 1.53529,0 2.91043,-1.08444 3.51968,-2.778125 l 0.0259,-0.0801 0.0263,-0.07855 6.16551,-25.505936 v 25.003125 c 0,2.671937 1.74586,4.788855 3.94085,4.788855 2.19673,0 3.94239,-2.090814 3.94239,-4.788855 V 6.746875 c 0,-1.7197903 -0.50281,-3.3334164 -1.42885,-4.5780151 C 135.96971,0.79373325 134.5145,0 133.00532,0 c -2.40736,0 -4.47005,1.9324158 -5.15938,4.7888549 l -6.77323,28.6287421 -6.87865,-29.1579088 -0.0263,-0.078548 -0.0264,-0.080098 C 113.71837,2.910418 113.05742,1.9042933 112.20969,1.190625 111.28365,0.39687579 110.19897,0 109.08843,0 Z" /></clipPath><clipPath
       clipPathUnits="userSpaceOnUse"
       id="clipPath720"><path
         id="path722"
         style="fill:#cc0000;fill-opacity:1;fill-rule:nonzero;stroke:none;stroke-width:0.352777"
         d="m 5.55625,62.28302 c -1.5613933,0 -3.0424597,0.820124 -4.0746867,2.223119 C 0.52941725,65.801187 0,67.468734 0,69.240736 v 39.819794 c 0,1.13841 0.34491425,2.22289 0.95239665,3.07061 0.71543225,0.97826 1.74566645,1.5074 2.83186835,1.5074 2.14277,0 3.8085533,-2.01051 3.8085533,-4.57801 V 84.189692 l 6.0854167,25.824778 0.0279,0.078 0.02584,0.0801 c 0.264583,0.79375 0.713937,1.45548 1.297079,1.95854 0.633588,0.55528 1.401198,0.84594 2.221053,0.84594 1.535287,0 2.910434,-1.08443 3.519682,-2.77812 l 0.02635,-0.0801 0.02584,-0.0785 6.165515,-25.928649 v 24.764379 c 0,2.67194 1.745901,4.78886 3.96875,4.78886 2.222852,0 3.942911,-2.09081 3.942911,-4.78886 V 69.029895 c 0,-1.719789 -0.503328,-3.332901 -1.429369,-4.577498 -1.006121,-1.375127 -2.433215,-2.143022 -3.942395,-2.143022 -2.407354,0 -4.497918,1.932149 -5.159375,4.814692 l -6.799585,29.157911 -6.879167,-29.712915 -0.02584,-0.07855 -0.02791,-0.0801 C 10.212546,65.219794 9.5508551,64.213669 8.7048951,63.5 7.778854,62.70625 6.6946629,62.28302 5.55625,62.28302 Z" /></clipPath><clipPath
       clipPathUnits="userSpaceOnUse"
       id="clipPath725"><path
         id="path727"
         style="fill:#cc0000;fill-opacity:1;fill-rule:nonzero;stroke:none;stroke-width:0.352777"
         d="m 54.636458,62.309375 c -2.196745,0 -3.942395,2.090566 -3.942395,4.7625 V 108.9024 c 0,2.67193 1.719546,4.7625 3.942395,4.7625 2.22285,0 3.942395,-2.09057 3.942395,-4.7625 V 67.071875 c -0.02611,-2.671934 -1.745649,-4.7625 -3.942395,-4.7625 z" /></clipPath><clipPath
       clipPathUnits="userSpaceOnUse"
       id="clipPath730"><path
         id="path732"
         style="fill:#cc0000;fill-opacity:1;fill-rule:nonzero;stroke:none;stroke-width:0.352777"
         d="m 73.263228,62.309375 c -2.064448,0 -3.704166,1.95829 -3.704166,4.445722 0,2.485671 1.613609,4.444175 3.704166,4.444175 h 9.022189 v 37.676768 c 0,2.69805 1.745646,4.78886 3.942395,4.78886 2.194978,0 3.94291,-2.11692 3.94291,-4.78886 V 71.172917 h 9.021673 c 2.062685,0 3.704165,-1.95829 3.704165,-4.445725 0,-2.485668 -1.61336,-4.417817 -3.67781,-4.417817 z" /></clipPath><filter
       id="filter2522"
       inkscape:label="filtermask-powermask-path-effect4282"
       style="color-interpolation-filters:sRGB"
       height="100"
       width="100"
       x="-50"
       y="-50"><feColorMatrix
         id="feColorMatrix2518"
         values="1"
         type="saturate"
         result="fbSourceGraphic" /><feColorMatrix
         id="feColorMatrix2520"
         values="-1 0 0 0 1 0 -1 0 0 1 0 0 -1 0 1 0 0 0 1 0 "
         in="fbSourceGraphic" /></filter><filter
       id="mask-powermask-path-effect4282-2_inverse"
       inkscape:label="filtermask-powermask-path-effect4282-2"
       style="color-interpolation-filters:sRGB"
       height="100"
       width="100"
       x="-50"
       y="-50"><feColorMatrix
         id="mask-powermask-path-effect4282-2_primitive1"
         values="1"
         type="saturate"
         result="fbSourceGraphic" /><feColorMatrix
         id="mask-powermask-path-effect4282-2_primitive2"
         values="-1 0 0 0 1 0 -1 0 0 1 0 0 -1 0 1 0 0 0 1 0 "
         in="fbSourceGraphic" /></filter><mask
       maskUnits="userSpaceOnUse"
       id="mask-powermask-path-effect4282-2"><path
         d="m 187.1559,117.65226 c -0.36459,0 -0.68902,-0.20657 -0.91567,-0.55108 l -4.0849,-6.57481 h -2.02754 v 5.63972 c 0,0.83666 -0.51224,1.48617 -1.17147,1.48617 -0.32508,0 -0.6398,-0.16706 -0.85609,-0.46236 -0.20722,-0.27587 -0.31537,-0.6398 -0.31537,-1.02381 v -15.60136 c 0,-0.797166 0.49216,-1.427254 1.13196,-1.427254 h 2.87459 c 0.81658,0 1.51531,0.07901 2.07675,0.226657 0.57052,0.147642 1.09247,0.422861 1.55483,0.806867 0.51223,0.44294 0.92538,0.99402 1.21096,1.65391 0.28559,0.65922 0.43323,1.48618 0.43323,2.48021 0,1.33853 -0.25579,2.47049 -0.75831,3.38616 -0.45266,0.81724 -1.06266,1.46675 -1.83069,1.92913 l 3.58303,5.64036 c 0.32508,0.51159 0.3445,1.22069 0.0492,1.76206 -0.21628,0.40344 -0.57115,0.62943 -0.95451,0.62943 z m -5.53222,-9.70519 c 0.52195,0 0.98431,-0.059 1.36832,-0.18715 0.36393,-0.11786 0.65923,-0.32443 0.91568,-0.6398 0.23571,-0.30501 0.42285,-0.65923 0.531,-1.06266 0.11851,-0.41381 0.17743,-0.94482 0.17743,-1.58462 0,-0.48244 -0.059,-0.90596 -0.18715,-1.26989 -0.11785,-0.35423 -0.305,-0.6398 -0.58087,-0.87617 -0.226,-0.19687 -0.48179,-0.34451 -0.78745,-0.42352 -0.31471,-0.0881 -0.70844,-0.12757 -1.1611,-0.12757 h -1.78147 v 6.17138 z"
         style="fill:#000000;fill-opacity:1;fill-rule:nonzero;stroke:none;stroke-width:0.131242"
         id="path4258-8" /></mask><inkscape:path-effect
       effect="powermask"
       id="path-effect4282-4"
       is_visible="true"
       lpeversion="1"
       uri="#mask-powermask-path-effect4282-4"
       invert="false"
       hide_mask="false"
       background="true"
       background_color="#ffffffff" /><filter
       id="mask-powermask-path-effect4282_inverse-6"
       inkscape:label="filtermask-powermask-path-effect4282"
       style="color-interpolation-filters:sRGB"
       height="100"
       width="100"
       x="-50"
       y="-50"><feColorMatrix
         id="mask-powermask-path-effect4282_primitive1-9"
         values="1"
         type="saturate"
         result="fbSourceGraphic" /><feColorMatrix
         id="mask-powermask-path-effect4282_primitive2-9"
         values="-1 0 0 0 1 0 -1 0 0 1 0 0 -1 0 1 0 0 0 1 0 "
         in="fbSourceGraphic" /></filter><mask
       maskUnits="userSpaceOnUse"
       id="mask-powermask-path-effect4282-4"><path
         id="mask-powermask-path-effect4282-4_box"
         style="fill:#ffffff;fill-opacity:1"
         d="m 171.19989,95.373456 h 22.77648 v 34.060884 h -22.77648 z"
         inkscape:original-d="m 171.19989,95.373456 h 22.77648 v 34.060884 h -22.77648 z" /><path
         d="m 187.1559,117.65226 c -0.36459,0 -0.68902,-0.20657 -0.91567,-0.55108 l -4.0849,-6.57481 h -2.02754 v 5.63972 c 0,0.83666 -0.51224,1.48617 -1.17147,1.48617 -0.32508,0 -0.6398,-0.16706 -0.85609,-0.46236 -0.20722,-0.27587 -0.31537,-0.6398 -0.31537,-1.02381 v -15.60136 c 0,-0.797166 0.49216,-1.427254 1.13196,-1.427254 h 2.87459 c 0.81658,0 1.51531,0.07901 2.07675,0.226657 0.57052,0.147642 1.09247,0.422861 1.55483,0.806867 0.51223,0.44294 0.92538,0.99402 1.21096,1.65391 0.28559,0.65922 0.43323,1.48618 0.43323,2.48021 0,1.33853 -0.25579,2.47049 -0.75831,3.38616 -0.45266,0.81724 -1.06266,1.46675 -1.83069,1.92913 l 3.58303,5.64036 c 0.32508,0.51159 0.3445,1.22069 0.0492,1.76206 -0.21628,0.40344 -0.57115,0.62943 -0.95451,0.62943 z m -5.53222,-9.70519 c 0.52195,0 0.98431,-0.059 1.36832,-0.18715 0.36393,-0.11786 0.65923,-0.32443 0.91568,-0.6398 0.23571,-0.30501 0.42285,-0.65923 0.531,-1.06266 0.11851,-0.41381 0.17743,-0.94482 0.17743,-1.58462 0,-0.48244 -0.059,-0.90596 -0.18715,-1.26989 -0.11785,-0.35423 -0.305,-0.6398 -0.58087,-0.87617 -0.226,-0.19687 -0.48179,-0.34451 -0.78745,-0.42352 -0.31471,-0.0881 -0.70844,-0.12757 -1.1611,-0.12757 h -1.78147 v 6.17138 z"
         style="fill:#000000;fill-opacity:1;fill-rule:nonzero;stroke:none;stroke-width:0.131242"
         id="path1031"
         inkscape:original-d="m 187.1559,117.65226 c -0.36459,0 -0.68902,-0.20657 -0.91567,-0.55108 l -4.0849,-6.57481 h -2.02754 v 5.63972 c 0,0.83666 -0.51224,1.48617 -1.17147,1.48617 -0.32508,0 -0.6398,-0.16706 -0.85609,-0.46236 -0.20722,-0.27587 -0.31537,-0.6398 -0.31537,-1.02381 v -15.60136 c 0,-0.797166 0.49216,-1.427254 1.13196,-1.427254 h 2.87459 c 0.81658,0 1.51531,0.07901 2.07675,0.226657 0.57052,0.147642 1.09247,0.422861 1.55483,0.806867 0.51223,0.44294 0.92538,0.99402 1.21096,1.65391 0.28559,0.65922 0.43323,1.48618 0.43323,2.48021 0,1.33853 -0.25579,2.47049 -0.75831,3.38616 -0.45266,0.81724 -1.06266,1.46675 -1.83069,1.92913 l 3.58303,5.64036 c 0.32508,0.51159 0.3445,1.22069 0.0492,1.76206 -0.21628,0.40344 -0.57115,0.62943 -0.95451,0.62943 z m -5.53222,-9.70519 c 0.52195,0 0.98431,-0.059 1.36832,-0.18715 0.36393,-0.11786 0.65923,-0.32443 0.91568,-0.6398 0.23571,-0.30501 0.42285,-0.65923 0.531,-1.06266 0.11851,-0.41381 0.17743,-0.94482 0.17743,-1.58462 0,-0.48244 -0.059,-0.90596 -0.18715,-1.26989 -0.11785,-0.35423 -0.305,-0.6398 -0.58087,-0.87617 -0.226,-0.19687 -0.48179,-0.34451 -0.78745,-0.42352 -0.31471,-0.0881 -0.70844,-0.12757 -1.1611,-0.12757 h -1.78147 v 6.17138 z" /></mask><filter
       id="mask-powermask-path-effect4282-4_inverse"
       inkscape:label="filtermask-powermask-path-effect4282-4"
       style="color-interpolation-filters:sRGB"
       height="100"
       width="100"
       x="-50"
       y="-50"><feColorMatrix
         id="mask-powermask-path-effect4282-4_primitive1"
         values="1"
         type="saturate"
         result="fbSourceGraphic" /><feColorMatrix
         id="mask-powermask-path-effect4282-4_primitive2"
         values="-1 0 0 0 1 0 -1 0 0 1 0 0 -1 0 1 0 0 0 1 0 "
         in="fbSourceGraphic" /></filter><clipPath
       clipPathUnits="userSpaceOnUse"
       id="clipPath1046"><path
         id="path1048"
         mask="url(#mask-powermask-path-effect4282-4)"
         style="display:inline;fill:#cc0000;fill-opacity:1;stroke:none;stroke-width:0.747352;stroke-linecap:round;stroke-linejoin:round;stroke-miterlimit:10"
         class="st5"
         d="m 182.58837,96.373414 c -5.73965,0 -10.38856,4.648296 -10.38856,10.387926 0,5.73964 3.9464,15.24575 10.38856,21.67296 6.29269,-6.29269 10.38792,-15.94826 10.38792,-21.67296 0,-5.73963 -4.64827,-10.387926 -10.38792,-10.387926 z"
         transform="matrix(1.6376591,0,0,1.6376591,-175.83587,-97.54934)" /></clipPath><mask
       maskUnits="userSpaceOnUse"
       id="mask-powermask-path-effect1689"><path
         id="mask-powermask-path-effect1689_box"
         style="fill:#ffffff;fill-opacity:1"
         d="m 105.16872,59.277458 h 36.02479 v 54.504802 h -36.02479 z" /><rect
         style="fill:url(#linearGradient1687);fill-opacity:1;fill-rule:evenodd;stroke:none;stroke-width:1.5;stroke-linecap:round;stroke-linejoin:round;stroke-miterlimit:5;paint-order:stroke fill markers"
         id="rect1685"
         width="140.19363"
         height="113.66467"
         x="0"
         y="0"
         ry="0"
         clip-path="url(#clipPath667)"
         transform="matrix(0.57443166,0,0,0.57443166,115.24633,64.767603)"
         d="M 0,0 H 140.19363 V 113.66467 H 0 Z" /></mask><linearGradient
       inkscape:collect="always"
       xlink:href="#linearGradient1612"
       id="linearGradient1687"
       gradientUnits="userSpaceOnUse"
       gradientTransform="translate(-2.7819214e-6)"
       x1="70.096817"
       y1="0.8198576"
       x2="70.096817"
       y2="113.66467" /><filter
       id="mask-powermask-path-effect1689_inverse"
       inkscape:label="filtermask-powermask-path-effect1689"
       style="color-interpolation-filters:sRGB"
       height="100"
       width="100"
       x="-50"
       y="-50"><feColorMatrix
         id="mask-powermask-path-effect1689_primitive1"
         values="1"
         type="saturate"
         result="fbSourceGraphic" /><feColorMatrix
         id="mask-powermask-path-effect1689_primitive2"
         values="-1 0 0 0 1 0 -1 0 0 1 0 0 -1 0 1 0 0 0 1 0 "
         in="fbSourceGraphic" /></filter></defs><rect
     style="fill:url(#linearGradient2442);fill-opacity:1;fill-rule:evenodd;stroke:none;stroke-width:1.5;stroke-linecap:round;stroke-linejoin:round;stroke-miterlimit:5;paint-order:stroke fill markers"
     id="rect636"
     width="140.19363"
     height="113.66467"
     x="0"
     y="0"
     ry="0"
     clip-path="url(#clipPath1046)"
     mask="url(#mask-powermask-path-effect1689)"
     inkscape:path-effect="#path-effect1689"
     d="M 0,0 H 140.19363 V 113.66467 H 0 Z"
     inkscape:export-filename="ruammitr_logo_for_bin.png"
     inkscape:export-xdpi="96"
     inkscape:export-ydpi="96" /><rect
     style="fill:url(#linearGradient2442);fill-opacity:1;fill-rule:evenodd;stroke:none;stroke-width:1.5;stroke-linecap:round;stroke-linejoin:round;stroke-miterlimit:5;paint-order:stroke fill markers"
     id="rect632"
     width="140.19363"
     height="113.66467"
     x="0"
     y="0"
     ry="0"
     clip-path="url(#clipPath730)" /><rect
     style="fill:url(#linearGradient2442);fill-opacity:1;fill-rule:evenodd;stroke:none;stroke-width:1.5;stroke-linecap:round;stroke-linejoin:round;stroke-miterlimit:5;paint-order:stroke fill markers"
     id="rect628"
     width="140.19363"
     height="113.66467"
     x="0"
     y="0"
     ry="0"
     clip-path="url(#clipPath725)" /><rect
     style="fill:url(#linearGradient2442);fill-opacity:1;fill-rule:evenodd;stroke:none;stroke-width:1.5;stroke-linecap:round;stroke-linejoin:round;stroke-miterlimit:5;paint-order:stroke fill markers"
     id="rect624"
     width="140.19363"
     height="113.66467"
     x="0"
     y="0"
     ry="0"
     clip-path="url(#clipPath720)" /><rect
     style="fill:url(#linearGradient2442);fill-opacity:1;fill-rule:evenodd;stroke:none;stroke-width:1.5;stroke-linecap:round;stroke-linejoin:round;stroke-miterlimit:5;paint-order:stroke fill markers"
     id="rect620"
     width="140.19363"
     height="113.66467"
     x="0"
     y="0"
     ry="0"
     clip-path="url(#clipPath715)" /><rect
     style="fill:url(#linearGradient2442);fill-opacity:1;fill-rule:evenodd;stroke:none;stroke-width:1.5;stroke-linecap:round;stroke-linejoin:round;stroke-miterlimit:5;paint-order:stroke fill markers"
     id="rect616"
     width="140.19363"
     height="113.66467"
     x="0"
     y="0"
     ry="0"
     clip-path="url(#clipPath677)" /><rect
     style="fill:url(#linearGradient2442);fill-opacity:1;fill-rule:evenodd;stroke:none;stroke-width:1.5;stroke-linecap:round;stroke-linejoin:round;stroke-miterlimit:5;paint-order:stroke fill markers"
     id="rect612"
     width="140.19363"
     height="113.66467"
     x="0"
     y="0"
     ry="0"
     clip-path="url(#clipPath672)" /><rect
     style="fill:url(#linearGradient2442);fill-opacity:1;fill-rule:evenodd;stroke:none;stroke-width:1.5;stroke-linecap:round;stroke-linejoin:round;stroke-miterlimit:5;paint-order:stroke fill markers"
     id="rect327"
     width="140.19363"
     height="113.66467"
     x="0"
     y="0"
     ry="0"
     clip-path="url(#clipPath667)" /><path
     id="path2869"
     mask="url(#mask-powermask-path-effect4282)"
     style="display:inline;fill:#cc0000;fill-opacity:1;stroke:none;stroke-width:0.747352;stroke-linecap:round;stroke-linejoin:round;stroke-miterlimit:10"
     class="st5"
     d="m 182.58844,96.373456 c -5.73965,0 -10.38855,4.648284 -10.38855,10.387924 0,5.73965 3.94639,15.24574 10.38855,21.67296 6.2927,-6.2927 10.38793,-15.94825 10.38793,-21.67296 0,-5.73964 -4.64827,-10.387924 -10.38793,-10.387924 z"
     transform="matrix(1.6376591,0,0,1.6376591,-175.83587,-97.54934)"
     inkscape:original-d="m 182.58844,96.373456 c -5.73965,0 -10.38855,4.648284 -10.38855,10.387924 0,5.73965 3.94639,15.24574 10.38855,21.67296 6.2927,-6.2927 10.38793,-15.94825 10.38793,-21.67296 0,-5.73964 -4.64827,-10.387924 -10.38793,-10.387924 z"
     inkscape:path-effect="#path-effect4282" /></svg>
