<?xml version="1.0" encoding="UTF-8" standalone="no"?>
<!-- Generator: Adobe Illustrator 22.1.0, SVG Export Plug-In . SVG Version: 6.00 Build 0)  -->

<svg
   version="1.1"
   id="Layer_1"
   x="0px"
   y="0px"
   viewBox="0 0 1280 1080"
   style="enable-background:new 0 0 1280 1080;"
   xml:space="preserve"
   sodipodi:docname="PinTheBin logo v2.svg"
   inkscape:version="1.2.1 (9c6d41e410, 2022-07-14)"
   xmlns:inkscape="http://www.inkscape.org/namespaces/inkscape"
   xmlns:sodipodi="http://sodipodi.sourceforge.net/DTD/sodipodi-0.dtd"
   xmlns:xlink="http://www.w3.org/1999/xlink"
   xmlns="http://www.w3.org/2000/svg"
   xmlns:svg="http://www.w3.org/2000/svg"><defs
   id="defs363" /><sodipodi:namedview
   id="namedview361"
   pagecolor="#ffffff"
   bordercolor="#111111"
   borderopacity="1"
   inkscape:showpageshadow="0"
   inkscape:pageopacity="0"
   inkscape:pagecheckerboard="1"
   inkscape:deskcolor="#d1d1d1"
   showgrid="false"
   inkscape:zoom="0.92777778"
   inkscape:cx="561.01796"
   inkscape:cy="540"
   inkscape:window-width="2560"
   inkscape:window-height="1377"
   inkscape:window-x="1912"
   inkscape:window-y="-8"
   inkscape:window-maximized="1"
   inkscape:current-layer="Layer_1" />
<style
   type="text/css"
   id="style321">
	.st0{display:none;}
	.st1{fill:#F77F00;}
	.st2{fill:#FFFFFF;}
</style>
<g
   id="Layer_2_1_"
   class="st0">
	
		<image
   style="display:inline;overflow:visible;enable-background:new    ;"
   width="405"
   height="395"
   xlink:href="D099DB80.jpeg"
   transform="matrix(1.9399 0 0 1.9399 263.8915 129.8608)"
   id="image323">
	</image>
</g>
<g
   id="Layer_3"
   inkscape:export-filename="bin_portal_color.png"
   inkscape:export-xdpi="96"
   inkscape:export-ydpi="96">
	<g
   id="g330">
		<circle
   class="st1"
   cx="649"
   cy="505.5"
   r="322.5"
   id="circle326" />
		<path
   class="st1"
   d="M660,434"
   id="path328" />
	</g>
</g>
<g
   id="Layer_4">
	<g
   id="g355">
		<path
   class="st2"
   d="M660,264.6c-30.7,0-55.6,24.9-55.6,55.6S636.5,393,660,434c24-34.5,55.6-83,55.6-113.8    C715.6,289.5,690.7,264.6,660,264.6z M660.3,344c-13.1,0-23.8-10.6-23.8-23.8s10.6-23.8,23.8-23.8s23.8,10.6,23.8,23.8    S673.4,344,660.3,344z"
   id="path333" />
		<polygon
   class="st2"
   points="603.2,411 611.7,417.8 618.3,411 610.8,403.2   "
   id="polygon335" />
		<polygon
   class="st2"
   points="626,416.3 619.3,423.3 627,430 633.7,423.2   "
   id="polygon337" />
		<path
   class="st2"
   d="M549.8,351.3l-9.7,1.5l2.7,9.5l8.3-1.5L549.8,351.3z M549.8,351.3l-9.7,1.5l2.7,9.5l8.3-1.5L549.8,351.3z     M549.8,351.3l-9.7,1.5l2.7,9.5l8.3-1.5L549.8,351.3z M549.8,351.3l-9.7,1.5l2.7,9.5l8.3-1.5L549.8,351.3z M549.8,351.3l-9.7,1.5    l2.7,9.5l8.3-1.5L549.8,351.3z M549.8,351.3l-9.7,1.5l2.7,9.5l8.3-1.5L549.8,351.3z M549.8,351.3l-9.7,1.5l2.7,9.5l8.3-1.5    L549.8,351.3z M549.8,351.3l-9.7,1.5l2.7,9.5l8.3-1.5L549.8,351.3z M549.8,351.3l-9.7,1.5l2.7,9.5l8.3-1.5L549.8,351.3z     M549.8,351.3l-9.7,1.5l2.7,9.5l8.3-1.5L549.8,351.3z M774.5,465.5h-30.2l52-130.8l-60.8-13.3l6.5,6.8l-8,8.5l22.5,5l-16.8,27.8    l-14.8-3.3l-11.5,11l47,10.5l-14,31.5l-48.8-11.5L687.5,421l55.5,13l-15,31.5h-52.3l4.8-35.5l-7.8,16.3l-9.5-0.3v19.5l-16.5-1.3    L585,427.5l-17,3.8l2.5-25l33.9-25.5l-3.1-14.3L571,389.8l9.5-62.3h6.5L575.5,314l-80.8,2.3l49.8,150.3c0,0-25.1-0.7-33.3,1    c-7.6,1.6-18.8,6.8-18.8,24c0,18.3,10,23.8,17.8,25.5c3,0.7,12.3,1,12.3,1L538.8,705c0.7,8.4,4.6,15.8,10.4,21    c5.8,5.3,13.5,8.5,21.9,8.5h145.8c18.3,0,33.7-14,35.3-32.2l17.2-185.5h5.3c7,0,13.3-2.8,17.9-7.4c4.6-4.6,7.4-10.9,7.4-17.9v-0.8    C799.8,476.8,788.4,465.5,774.5,465.5z M752.5,373l16.5-27.9l5.8,1l-9.1,28.5L752.5,373z M583.6,439.1c0,0,45.5,26.7,45.1,27    c-0.5,0.4-34.4,0-34.4,0l-7.5-6.5l-8,6.7l-19.6,0.1l6.5-18.7L583.6,439.1z M517.6,331.6l16.4-1.9l3.7,15.8l8.5-2.3l-1.9-13.4H568    l-6.4,42.3l-28.7,3.9L517.6,331.6z M535.6,387.5l23.4-3l-6.1,55.4L535.6,387.5z M515.1,486.3C515.1,486.2,515.1,486.2,515.1,486.3    c-0.2-0.6-0.3-1.2-0.3-1.8v-0.2c0-3.5,2.8-6.3,6.3-6.3h249.7c3,0,5.6,2.1,6.2,5c0,0,0,0.1,0,0.2c0.1,0.4,0.1,0.8,0.1,1.2v0.2    c0,3.5-2.8,6.3-6.3,6.3H521.2c-1.8,0-3.3-0.7-4.5-1.8c-0.7-0.7-1.3-1.6-1.6-2.6C515.1,486.3,515.1,486.3,515.1,486.3z     M571.9,652.7l-11.2-111c-0.2-1.9,1-3.7,2.9-4.1c0.3-0.1,0.6-0.1,0.9-0.1c2,0,3.7,1.5,3.8,3.6l7.1,120.3L571.9,652.7z M614,690.2    h-0.4c-2.5,0.1-4.5-1.9-4.6-4.3l-6.3-140.8c-0.1-2.5,1.9-4.7,4.4-4.7h0.1c2.4,0,4.4,1.9,4.5,4.3l6.7,140.8    C618.6,688,616.6,690.1,614,690.2z M689.2,685.9c-0.1,2.5-2.2,4.4-4.6,4.3h-0.4c-2.5-0.1-4.5-2.2-4.4-4.7l6.7-140.8    c0.1-2.4,2.1-4.3,4.5-4.3h0.1c2.5,0.1,4.5,2.2,4.4,4.7L689.2,685.9z M735.4,541.7l-11.2,111l-3.4,8.6l7.1-120.3    c0.1-2,1.8-3.6,3.8-3.6c0.3,0,0.6,0,0.9,0.1C734.4,538,735.6,539.8,735.4,541.7z M540.1,352.8l2.7,9.5l8.3-1.5l-1.3-9.5    L540.1,352.8z M549.8,351.3l-9.7,1.5l2.7,9.5l8.3-1.5L549.8,351.3z M549.8,351.3l-9.7,1.5l2.7,9.5l8.3-1.5L549.8,351.3z     M549.8,351.3l-9.7,1.5l2.7,9.5l8.3-1.5L549.8,351.3z M549.8,351.3l-9.7,1.5l2.7,9.5l8.3-1.5L549.8,351.3z M549.8,351.3l-9.7,1.5    l2.7,9.5l8.3-1.5L549.8,351.3z M549.8,351.3l-9.7,1.5l2.7,9.5l8.3-1.5L549.8,351.3z M549.8,351.3l-9.7,1.5l2.7,9.5l8.3-1.5    L549.8,351.3z M549.8,351.3l-9.7,1.5l2.7,9.5l8.3-1.5L549.8,351.3z"
   id="path339" />
		<path
   class="st2"
   d="M777.3,484.8v0.2c0,3.5-2.8,6.3-6.3,6.3H521.3c-1.8,0-3.3-0.7-4.5-1.8c-0.9-0.8-1.5-1.9-1.7-3.1    c0.3,1,0.8,1.9,1.6,2.6c1.2,1.1,2.7,1.8,4.5,1.8h249.7c3.5,0,6.3-2.8,6.3-6.3v-0.2c0-0.4,0-0.8-0.1-1.2    C777.2,483.7,777.3,484.2,777.3,484.8z"
   id="path341" />
		
			<rect
   x="734.8"
   y="393.8"
   transform="matrix(0.1735 -0.9848 0.9848 0.1735 217.7541 1058.7715)"
   class="st2"
   width="9.8"
   height="11.8"
   id="rect343" />
		<polygon
   class="st2"
   points="708.5,394.5 706.9,403.4 717.5,405 719,396.4   "
   id="polygon345" />
		<rect
   x="693.8"
   y="437.8"
   class="st2"
   width="10"
   height="8.8"
   id="rect347" />
		<rect
   x="711.4"
   y="441.6"
   class="st2"
   width="10"
   height="8.8"
   id="rect349" />
		<rect
   x="693.8"
   y="452.9"
   class="st2"
   width="10"
   height="8.8"
   id="rect351" />
		
			<rect
   x="716.1"
   y="382.7"
   transform="matrix(0.1735 -0.9848 0.9848 0.1735 214.3311 1028.1094)"
   class="st2"
   width="7.3"
   height="7.3"
   id="rect353" />
	</g>
</g>
<image
   style="overflow:visible"
   width="660"
   height="150"
   xlink:href="D099DB80.jpg"
   id="image358"
   x="633.70001"
   y="893.11017">
</image>
</svg>
