<?xml version="1.0" encoding="utf-8"?>
<!-- Generator: Adobe Illustrator 22.1.0, SVG Export Plug-In . SVG Version: 6.00 Build 0)  -->
<svg version="1.1" id="Layer_1" xmlns="http://www.w3.org/2000/svg" xmlns:xlink="http://www.w3.org/1999/xlink" x="0px" y="0px"
	 viewBox="0 0 1280 1080" style="enable-background:new 0 0 1280 1080;" xml:space="preserve">
<style type="text/css">
	.st0{fill:#FFB703;stroke:#000000;stroke-width:10;stroke-miterlimit:10;}
	.st1{fill:#FFFFFF;stroke:#000000;stroke-width:10;stroke-miterlimit:10;}
</style>
<g id="Layer_3">
	<path class="st0" d="M837.4,958.8c-17.8,0-33.7-10.7-40.5-27.1c-9.9-23.5-13.6-45.1-11.2-64.5c2.1-17.5,16.3-31.1,33.9-32.6
		c99.7-8.7,237.7-125.6,217.9-346.6c-1-11.3-10.5-20.2-22-20.2c-178.6,0-314.9-1-371.5-1.5c-15.8-0.2-28.6-13-28.6-29V159
		c0-13.7-11.2-24.9-24.9-24.9l-244.1-0.6c-13.3,0-24,10.8-23.7,24.2L336,715.2c1.3,57.3,47.4,103.4,104.7,104.7l55.6,1.3
		c5.9,0.2,11.7,2.1,16.3,5.8c16,12.7,45.4,48.1,3.5,117.8c-6.8,11.4-19.1,18.1-32.4,18.1h-97.1c0,0-8.4,67.2,2.1,92.3h587.5
		c15.1-29.6,0-96.5,0-96.5H837.4z"/>
	<path class="st0" d="M825.3,31.6c-63.2,0-114.4,51.2-114.4,114.4c0,63.2,43.5,167.9,114.4,238.7C894.6,315.4,939.7,209,939.7,146
		C939.7,82.8,888.5,31.6,825.3,31.6z"/>
</g>
<g>
	<path class="st1" d="M673.2,695.8h-68.3v103.1c0,8-6.5,14.4-14.4,14.4h-10.7c-7.3,0-13.2-5.9-13.2-13.2V540
		c0-9.5,7.6-17.2,17.2-17.2h79c32.8,0,57.9,7.5,75.6,22.4c17.7,14.9,26.5,36.5,26.5,65c0,18.2-4.9,33.8-14.6,47.2
		c-9.8,13.4-23.4,23.4-40.8,30.1l68.3,123.3v2.4h-23.4c-11,0-21.4-6.1-26.7-16L673.2,695.8z M604.9,664.3h58.8
		c19,0,34.1-4.9,45.3-14.8c11.2-9.8,16.8-23.1,16.8-39.6c0-18-5.4-31.8-16.1-41.4c-10.7-9.5-26.2-14.4-46.4-14.6h-51.6
		c-3.9,0-7,3.1-7,7v103.4H604.9z"/>
</g>
<circle class="st1" cx="823" cy="145.4" r="56"/>
</svg>
