<?xml version="1.0" encoding="utf-8"?>
<!-- Generator: Adobe Illustrator 22.1.0, SVG Export Plug-In . SVG Version: 6.00 Build 0)  -->
<svg version="1.1" id="Layer_1" xmlns="http://www.w3.org/2000/svg" xmlns:xlink="http://www.w3.org/1999/xlink" x="0px" y="0px"
	 viewBox="0 0 1280 1080" style="enable-background:new 0 0 1280 1080;" xml:space="preserve">
<style type="text/css">
	.st0{fill:#C80000;}
	.st1{fill:#FFFFFF;}
	.st2{fill:#FFFFFF;stroke:#FFFFFF;stroke-width:4;stroke-linecap:round;stroke-miterlimit:10;}
</style>
<rect x="337.2" y="304" class="st0" width="551.4" height="427"/>
<path class="st1" d="M491.4,497.7h-24.6l-45.2-56.8h-21.6v59h-19.3V354.8h37c8.3,0,15.1,0.4,20.6,1.4c5.5,1,10.8,2.9,15.7,6.3
	c4.9,3.1,8.8,7.3,11.8,12.4c2.9,5.1,4.3,11.4,4.3,18.9c0,10.4-2.8,19.3-8.1,26.3c-5.3,7.1-12.6,12.2-21.6,15.7L491.4,497.7z
	 M450.3,395.1c0-4.1-0.8-7.9-2.2-11c-1.4-3.1-3.7-5.9-6.9-7.9c-2.8-1.8-5.9-3.1-9.4-3.7c-3.5-0.8-8.1-1.2-13.4-1.2h-18.9v53.7h16.7
	c5.5,0,10.4-0.4,14.7-1.4c4.3-1,8.1-2.9,11.2-5.9c2.8-2.8,4.7-5.9,6.1-9.6C449.7,404.3,450.3,400,450.3,395.1z"/>
<path class="st1" d="M583.6,499.7h-18.1v-12c-5.5,4.9-10.8,8.7-15.9,11c-5.1,2.4-10.6,3.7-16.7,3.7c-4.7,0-9-0.8-13.2-2.4
	c-4.1-1.6-7.7-3.9-10.8-7.3c-3.1-3.3-5.5-7.5-7.1-12.6c-1.8-5.1-2.6-11.2-2.6-18.5v-69.6h18.1v61.1c0,5.7,0.2,10.4,0.6,14.2
	c0.4,3.7,1.4,7.1,2.8,9.8c1.4,2.8,3.5,4.7,6.1,6.1s6.1,2,10.8,2c4.3,0,9-1.2,14.2-3.7c5.1-2.6,9.6-5.5,13.8-9.2v-80h18.1
	L583.6,499.7L583.6,499.7z"/>
<path class="st1" d="M669.7,488.3c-1.4,1.2-3.5,2.6-5.9,4.5c-2.6,2-4.9,3.5-7.1,4.7c-3.1,1.6-6.3,2.9-9.2,3.9s-7.1,1.4-12.6,1.4
	c-4.3,0-8.7-0.8-12.6-2.6c-3.9-1.6-7.5-3.9-10.4-7.1c-2.9-2.9-5.1-6.5-6.9-10.8c-1.8-4.3-2.6-8.8-2.6-13.8c0-7.5,1.6-13.8,4.7-18.9
	c3.1-5.3,8.1-9.4,14.9-12.4c6.1-2.8,13.2-4.7,21.2-5.7c8.3-1,17.1-1.8,26.5-2.4v-3.5c0-4.1-0.6-7.7-2-10.2c-1.4-2.6-3.1-4.5-5.3-6.1
	c-2.4-1.4-5.1-2.4-8.5-2.9c-3.3-0.4-6.7-0.8-10.2-0.8c-4.1,0-9,0.6-14.7,2c-5.7,1.2-11.2,3.1-16.9,5.5h-1v-18.3
	c3.3-1,8.1-2,14.4-3.1c6.3-1.2,12.4-1.8,18.5-1.8c7.3,0,13.6,0.6,18.7,1.8c5.1,1.2,9.6,3.1,13.6,6.3c3.9,2.9,6.9,6.7,8.7,11.4
	c2,4.7,2.9,10.4,2.9,17.1v73.1h-18.3V488.3z M669.7,473.3v-29.7c-4.3,0.4-9.6,1-16.3,1.6c-6.5,0.6-11.8,1.6-15.9,2.8
	c-4.7,1.4-8.8,3.7-12,6.7c-3.1,2.9-4.7,7.3-4.7,12.8c0,6.1,1.8,10.8,5.1,14c3.5,3.1,8.5,4.7,15.1,4.7c5.7,0,10.8-1.2,15.5-3.7
	C661.2,479.8,665.6,476.9,669.7,473.3z"/>
<path class="st1" d="M834.7,499.7v-61.9c0-4.9-0.2-9.4-0.6-13.8c-0.4-4.1-1.2-7.5-2.4-9.8c-1.4-2.6-3.1-4.5-5.5-5.7
	c-2.4-1.2-5.5-1.8-9.6-1.8c-3.7,0-7.7,1.2-12,3.3c-4.3,2.4-8.7,5.5-13.2,9.8c0,1.2,0.2,2.4,0.2,3.9c0,1.6,0.2,3.3,0.2,5.3v70.6
	h-17.9v-61.9c0-4.9-0.2-9.4-0.6-13.8c-0.4-4.1-1.2-7.5-2.4-9.8c-1.4-2.6-3.1-4.5-5.5-5.7c-2.4-1.2-5.5-1.8-9.6-1.8
	c-3.9,0-8.1,1.2-12.4,3.7c-4.3,2.4-8.5,5.5-12.4,9.2v80H713V392.5H731v12c4.7-4.7,9.4-8.5,14.2-11c4.7-2.6,9.8-3.9,15.3-3.9
	c6.3,0,12,1.4,16.9,4.3c4.9,2.9,8.7,7.7,11.2,14.2c5.5-6.1,10.8-10.6,15.9-13.8s10.8-4.7,16.9-4.7c4.5,0,8.8,0.8,12.6,2.2
	s7.1,3.7,9.8,6.9c2.9,3.3,5.1,7.3,6.7,12.2c1.6,4.9,2.4,11,2.4,18.3v70.6H834.7z"/>
<path class="st1" d="M505.1,680.2h-19.1V572.8l-37.2,70h-11.6l-29.1-70v107.4h-17.7v-141h18.1l35.8,79.6l42.3-79.6h18.5V680.2z"/>
<path class="st1" d="M598.1,557.1h-20.4v-18.7h20.4V557.1z M597,680.2h-18.1V575H597V680.2z"/>
<path class="st1" d="M711.4,680.3c-9.8,0-17.5-2.8-23-8.5c-5.5-5.5-8.3-14.4-8.3-26.5V584h-12.2v-14.9h12.2v-30.9h18.1v30.9h33.2
	V584h-33.2v52.9c0,5.5,0,9.6,0.2,12.6c0.2,2.9,1,5.7,2.2,8.3c1.2,2.2,2.8,3.9,5.3,5.1c2.4,1.2,5.7,1.8,9.8,1.8
	c2.9,0,5.7-0.4,8.5-1.4c2.8-0.8,4.7-1.6,5.9-2.2h1v16.3c-3.3,1-6.9,1.8-10.2,2.2C717.5,680.2,714.3,680.3,711.4,680.3z"/>
<path class="st1" d="M841.3,580.7h-1c-1.4-0.4-2.8-0.6-4.3-0.8c-1.6,0-3.3-0.2-5.5-0.2c-4.9,0-9.6,1-14.5,3.1s-9.4,5.3-13.6,9.4
	v87.9h-18.1v-119h18.1v15.9c6.7-5.9,12.4-10,17.3-12.4c4.9-2.4,9.6-3.5,14.4-3.5c1.8,0,3.3,0,4.1,0.2c1,0,2,0.2,3.1,0.4V580.7z"/>
<line class="st2" x1="370.7" y1="521.5" x2="862.9" y2="521.5"/>
</svg>
