<?xml version="1.0" encoding="utf-8"?>
<!-- Generator: Adobe Illustrator 22.1.0, SVG Export Plug-In . SVG Version: 6.00 Build 0)  -->
<svg version="1.1" id="Layer_1" xmlns="http://www.w3.org/2000/svg" xmlns:xlink="http://www.w3.org/1999/xlink" x="0px" y="0px"
	 viewBox="0 0 1280 1080" style="enable-background:new 0 0 1280 1080;" xml:space="preserve">
<style type="text/css">
	.st0{enable-background:new    ;}
	.st1{fill:#B10000;}
	.st2{fill:#FFFFFF;}
	.st3{fill:#B80000;}
	.st4{fill:#B80000;stroke:#FFFFFF;stroke-width:2;stroke-linejoin:bevel;stroke-miterlimit:10;}
	.st5{fill:#B80000;stroke:#FFFFFF;stroke-width:2;stroke-miterlimit:10;}
</style>
<g class="st0">
	<g>
		<path class="st1" d="M374.6,563.7l-25.2-65.2H326v65.2h-43.7V394.2h74.8c13.6,0,24.7,1.7,33.1,4.7c8.6,3.2,15.8,9.4,21.2,18
			c5.4,8.6,8.4,18.3,8.4,28.9c0,20-9.4,34.6-27.9,43.7l30.9,74.1H374.6z M347.2,465.4c7.4,0,12.8-0.5,16.1-1.5c3-1,5.7-3,8.2-6.4
			c2.5-3.2,3.7-7.2,3.7-11.4c0-4.2-1.2-7.7-3.7-10.9c-2.5-3.2-4.9-5.2-7.7-5.7c-3-0.7-8.9-1.2-17.5-1.2H326v37.1H347.2z"/>
		<path class="st2" d="M357.1,396.7c13.3,0,24,1.5,32.1,4.7c8.2,3.2,14.8,8.6,20,17c5.4,8.4,7.9,17.5,7.9,27.7
			c0,19.8-9.6,33.8-28.7,42.5l30.4,72.9h-42.7l-25.2-65.2h-27.7v65.2h-38.8V396.7H357.1 M323.5,467.8h23.7c7.7,0,13.3-0.5,16.8-1.7
			c3.5-1,6.7-3.5,9.4-7.2c2.7-3.7,4.2-8.2,4.2-12.8c0-4.7-1.2-8.6-4.2-12.4c-2.7-3.7-5.7-5.9-8.9-6.7c-3.2-0.7-9.1-1.2-18-1.2h-22.7
			v42 M357.1,391.8h-72.4h-4.9v4.9v164.8v4.9h4.9h38.8h4.9v-4.9v-60.3h19.3l24,62l1.2,3.2h3.5h42.7h7.4l-3-6.9l-28.7-68.7
			c18-9.6,27.2-24.7,27.2-45c0-11.1-3-21.2-8.6-30.4c-5.9-9.1-13.3-15.6-22.5-19C382.3,393.5,370.9,391.8,357.1,391.8L357.1,391.8z
			 M328.4,430.8h17.8c10.4,0,14.8,0.5,16.8,1c2.2,0.5,4.2,2.2,6.2,4.9c2.2,2.7,3.2,5.9,3.2,9.4c0,3.7-1,7.2-3.2,9.9
			c-2,3-4.4,4.7-6.9,5.4c-2,0.7-6.4,1.5-15.3,1.5h-18.8v-32.1H328.4z"/>
	</g>
	<g>
		<path class="st1" d="M477.6,566.4c-9.6,0-17.3-2-22.5-5.7c-5.4-3.7-9.1-8.9-11.4-15.1c-2.2-6.2-3.2-14.8-3.2-26.4v-82h39.8v82
			c0,12.4,5.9,13.8,11.1,13.8c4,0,7.4-1,10.4-3.5c3-2.2,4.9-4.7,5.7-7.2c1-2.7,1.2-7.7,1.2-14.6V437h40.8v126.7h-38.3v-13.3
			C503.8,561,492.7,566.4,477.6,566.4z"/>
		<path class="st2" d="M547,439.4v121.8h-33.3v-20.7c-6.2,15.6-18.3,23.2-35.8,23.2c-9.1,0-16.3-1.7-21-5.2
			c-4.9-3.5-8.4-8.2-10.6-14.1c-2.2-5.9-3.2-14.3-3.2-25.7v-79.5h34.8v79.5c0,10.9,4.4,16.3,13.6,16.3c4.4,0,8.6-1.2,11.9-4
			c3.5-2.7,5.4-5.4,6.4-8.4c1-3,1.5-8.2,1.5-15.3v-68.4H547 M552,434.5H547H511H506v4.9v68.4c0,8.4-0.7,12.1-1.2,13.8
			c-0.5,2-2.2,4-4.7,5.9c-2.5,2-5.4,3-8.9,3c-4.2,0-8.6-1-8.6-11.4v-79.5v-4.9h-4.9h-34.8h-4.9v4.9v79.5c0,11.9,1.2,20.7,3.5,27.4
			c2.5,6.9,6.7,12.4,12.4,16.3s13.8,5.9,24,5.9c13.1,0,23.5-4,30.9-11.4v4v4.9h4.9h33.3h4.9v-4.9V439.7v-5.2H552z"/>
	</g>
	<g>
		<path class="st3" d="M607.6,566.4c-11.9,0-21.7-3.2-29.1-9.9c-7.7-6.7-11.4-15.6-11.4-26.9c0-8.2,2.2-15.6,6.4-22.5
			c4.4-6.9,11.4-12.4,21-16.1c9.1-3.7,24.9-6.4,48.2-8.2v-4.7c0-10.4-4.9-15.3-15.3-15.3c-11.4,0-17.3,4.9-18.5,15.6l-0.2,2.5
			l-38.3-3.7l0.5-2.7c2.2-14.6,9.4-24.9,21-31.1c11.1-5.9,24.2-8.9,38.3-8.9c8.4,0,16.6,1,24,3c7.7,2,13.8,5.2,18.3,9.4
			c4.4,4.2,7.4,8.6,8.9,13.3c1.5,4.7,2.2,12.4,2.2,23.2v55.3c0,10.4,0.7,17.8,2,22l1,3.2h-40.3l-0.5-2c-0.7-3.5-1.2-7.7-1.5-12.6
			c-4.9,5.9-9.9,10.1-14.8,12.4C622.9,564.7,615.5,566.4,607.6,566.4z M642.4,505.6c-21.7,2.5-32.6,9.4-32.6,20c0,3.7,1,6.7,3.5,9.4
			c2.2,2.5,5.2,3.7,9.4,3.7c5.7,0,10.1-2.2,14.1-6.9c4-4.9,5.9-10.9,5.9-18v-8.2H642.4z"/>
		<path class="st2" d="M629.8,437c8.2,0,16.1,1,23.5,3c7.4,2,13.1,4.9,17,8.6c4.2,4,6.9,7.9,8.4,12.4c1.5,4.4,2.2,11.9,2.2,22.5
			v55.3c0,10.6,0.7,18.3,2.2,22.7h-34.8c-1-4.9-1.7-11.1-1.7-19c-6.2,8.6-12.1,14.3-18.3,17.3c-6.2,3-12.8,4.2-20.7,4.2
			c-11.4,0-20.5-3.2-27.7-9.4c-6.9-6.2-10.6-14.6-10.6-24.9c0-7.7,2-14.6,6.2-21s10.6-11.4,19.8-15.1c9.1-3.7,25.7-6.4,49.7-8.2
			v-6.9c0-11.9-5.9-17.8-17.8-17.8c-12.6,0-19.5,5.9-21,17.8l-33.1-3.2c2.2-13.8,8.6-23.7,19.8-29.4C603.6,439.9,616,437,629.8,437
			 M622.4,541.5c6.4,0,11.6-2.7,16.1-7.9c4.2-5.2,6.4-11.9,6.4-19.5v-11.1c-25.2,2.5-37.5,10.1-37.5,22.7c0,4.2,1.2,7.9,4,11.1
			C613.7,540,617.4,541.5,622.4,541.5 M629.8,432c-14.6,0-27.9,3.2-39.5,9.4c-12.4,6.4-19.8,17.5-22.2,33.1l-0.7,5.2l5.2,0.5
			l33.1,3.2l4.7,0.5l0.5-4.7c1.2-9.4,5.9-13.3,16.1-13.3c9.1,0,12.8,3.7,12.8,12.8v2.5c-22.2,1.7-37.5,4.4-46.4,8.2
			c-10.1,4-17.5,9.9-22,17c-4.7,7.2-6.9,15.3-6.9,23.7c0,11.9,4.2,21.5,12.1,28.7c7.9,6.9,18.3,10.6,30.9,10.6
			c8.4,0,16.1-1.7,22.7-4.7c4-2,7.9-4.7,11.9-8.6c0.2,2.7,0.7,4.9,1.2,7.2l1,4h4h34.8h6.7l-2-6.4c-1.2-4-2-11.1-2-21.2v-55.3
			c0-11.4-0.7-19-2.5-24c-1.7-5.2-4.9-9.9-9.6-14.3s-11.1-7.7-19.3-9.9C646.6,433,638.4,432,629.8,432L629.8,432z M622.4,536.5
			c-4.4,0-6.4-1.7-7.7-3c-2-2.2-2.7-4.7-2.7-7.9c0-8.9,9.4-14.6,27.7-17.3v5.4c0,6.7-1.7,11.9-5.4,16.3
			C631.3,534.5,627.3,536.5,622.4,536.5L622.4,536.5z"/>
	</g>
	<path class="st4" d="M848.7,559.7V494c0-9.4-0.2-15.6-0.7-18.5c-0.5-2.7-2-5.2-4.4-7.2c-2.5-2-5.7-2.7-9.9-2.7
		c-4,0-7.9,1.5-12.1,4.2c-4.2,2.7-6.2,10.9-6.2,24.2v67.4h-36.1V494c0-9.6-0.5-16.1-1.2-18.8c-1-3-2.5-5.2-4.9-6.9
		c-2.5-1.7-5.7-2.7-9.4-2.7c-6.2,0-10.9,2-13.8,5.9c-3,4-4.4,11.4-4.4,22.7v67.4h-34.8V439.9h33.8v18.5c5.7-14.1,17-21,34.3-21
		c15.6,0,26.7,7.2,33.6,21c6.7-14.1,18.5-21,35.3-21c8.2,0,15.1,1.7,20.7,4.9c0.5,0.2,1,0.5,1.5,1c4.9,3.2,8.6,7.2,10.9,12.1
		c1,2.5,2,5.4,2.5,9.4"/>
</g>
<g class="st0">
	<path class="st5" d="M405.8,726v15.8h32.4V637.5 M460.1,577.3h5.7l28.9,98.6l30.4-98.6h60.3v164.5h-38.8V607.4l-41.5,134.4h-26.4
		L443.1,624"/>
	<g>
		<path class="st3" d="M675.7,744.3V617.5h41v126.7H675.7z M675.7,612.1v-41h41v41H675.7z"/>
		<path class="st2" d="M714,573.8v35.8H678v-35.8H714 M714,620v121.8H678V620H714 M719,568.9H714H678H673v4.9v35.8v4.9h4.9H714h4.9
			v-4.9v-35.8V568.9L719,568.9z M719,615.1H714H678H673v4.9v121.8v4.9h4.9H714h4.9v-4.9V620V615.1L719,615.1z"/>
	</g>
	<g>
		<path class="st3" d="M851.4,747c-15.8,0-26.7-3-33.6-9.4c-6.7-6.2-10.1-17.3-10.1-33.1v-54.1h-19.3v-32.9h21.5l3-35.8l35.8-2.7
			v38.5h26.2v32.9h-26.2v48.9c0,7.7,1.5,10.4,2.2,11.4c0.7,1,3.5,2.5,11.6,2.5c3.2,0,7.2-0.2,11.1-0.5l2.7-0.2v31.4l-2,0.2
			C863.7,746,856.1,747,851.4,747z"/>
		<path class="st2" d="M845.9,581.7V620h26.2v27.9h-26.2v51.6c0,6.4,1,10.6,3,12.8c2,2.2,6.4,3.2,13.6,3.2c3.2,0,7.2-0.2,11.4-0.5
			v26.7c-10.4,1.7-18,2.7-22.5,2.7c-15.1,0-25.7-3-31.9-8.6c-6.2-5.7-9.4-16.1-9.4-31.1v-56.8h-19.3V620h21.5l3-35.8L845.9,581.7
			 M850.9,576.3l-5.4,0.5l-30.9,2.5l-4.2,0.2l-0.2,4.2l-2.5,31.4h-16.8h-4.9v4.9v27.9v4.9h4.9h14.3v51.9c0,16.6,3.7,28.2,11.1,34.8
			c7.2,6.7,18.8,9.9,35.1,9.9c4.9,0,12.8-1,23.5-2.7l4.2-0.7v-4.2v-26.7v-5.2l-5.2,0.5c-4,0.2-7.9,0.5-11.1,0.5
			c-8.4,0-9.9-1.5-9.9-1.5c-0.2-0.2-1.7-2.2-1.7-9.6v-46.7h21.2h4.9v-4.9v-27.9v-4.9h-4.9h-21.2V582v-5.7H850.9z"/>
	</g>
	<g>
		<path class="st3" d="M951.4,744.3V617.5h37.8v12.6c5.7-10.1,13.6-15.3,23.7-15.3c1.7,0,4.2,0.2,6.7,0.5l2.2,0.2v40h-2.5
			c-6.9,0-12.1,1-15.8,3c-3.5,2-6.7,5.7-8.9,10.9c-2.5,5.4-3.7,13.1-3.7,22.5V744h-39.5V744.3z"/>
		<path class="st2" d="M1013.2,617.3c1.7,0,4,0,6.4,0.2v35.6c-7.4,0-13.1,1.2-17,3.5c-4,2.2-7.4,6.2-9.9,12.1
			c-2.5,5.9-4,13.6-4,23.5v49.7h-34.8V620h32.9v22.7C991.9,625.7,1000.8,617.3,1013.2,617.3 M1013.2,612.3c-6.7,0-14.6,2-21.2,9.9
			V620v-4.9H987h-32.9h-4.9v4.9v121.8v4.9h4.9H989h4.9v-4.9v-49.7c0-9.1,1.2-16.3,3.5-21.5c2.2-4.7,4.7-8.2,7.9-9.9
			c3.2-1.7,8.2-2.7,14.6-2.7h4.9v-4.9v-35.6v-4.4l-4.4-0.5C1017.6,612.6,1015.1,612.3,1013.2,612.3L1013.2,612.3z"/>
	</g>
</g>
</svg>
