<?xml version="1.0" encoding="utf-8"?>
<!-- Generator: Adobe Illustrator 22.1.0, SVG Export Plug-In . SVG Version: 6.00 Build 0)  -->
<svg version="1.1" id="Layer_1" xmlns="http://www.w3.org/2000/svg" xmlns:xlink="http://www.w3.org/1999/xlink" x="0px" y="0px"
	 viewBox="0 0 1280 1080" style="enable-background:new 0 0 1280 1080;" xml:space="preserve">
<style type="text/css">
	.st0{fill:#E40000;}
	.st1{fill:none;}
</style>
<g>
	<path class="st0" d="M430.4,409.7L430.4,409.7l-58.6-27.3V396l23.7,52.9h51.2L430.4,409.7z M440.3,339.2c0-16.3-5.9-29.7-17.6-40.3
		c-10.5-9.5-25.3-14.2-44.4-14.2h-62.7v51.5l48.8,22.8v-30.1h8.6c11.9,0,17.8,3.9,17.8,11.7c0,8.8-5.1,13.2-15.4,13.2h-3.8v8.6
		l48.3,22.5l-1.5-3.6C433,369.8,440.3,355.8,440.3,339.2z M315.7,356.2v92.7h48.8V379L315.7,356.2z"/>
	<path class="st0" d="M535.4,330.7v67.7c0,6.8-2.8,10.2-8.4,10.2c-5.7,0-8.5-3.4-8.5-10.2v-67.7h-45v63.3c0,6,0.5,11.5,1.5,16.5
		l77.6,36.2c4.5-2.5,8.6-5.7,12.4-9.7c10.3-10.7,15.5-23.8,15.5-39.4v-66.9H535.4z M487.3,436.3c9.4,10.2,21.2,15.7,35.6,16.6
		L487.3,436.3z"/>
	<path class="st0" d="M735,448.9h4V447L735,448.9z M722.2,343.6c-11.2-11.4-26.5-17-45.9-17c-17.4,0-32.2,6.1-44.3,18.2
		c-12.1,12.1-18.2,26.9-18.2,44.3c0,17.9,6,32.8,18.1,44.6c12,11.9,27,17.8,45.1,17.8c3,0,6.4-0.3,10.1-1v-46.6
		c-3.4,2.1-7,3.1-10.9,3.1c-4.8,0-8.8-1.6-11.9-4.8c-3.1-3.2-4.7-7.3-4.7-12.3c0-4.7,1.7-8.8,5.2-12.3c3.4-3.4,7.5-5.2,12.3-5.2
		c5.2,0,9.4,1.9,12.4,5.6c3.1,3.8,4.6,8.8,4.6,15.2v54.6l45-21v-36.9C739,370.4,733.4,354.9,722.2,343.6z"/>
	<path class="st0" d="M939.3,353.7l-42.4,19.8c0.1,0.1,0.2,0.2,0.3,0.4c1,1.9,1.6,5.4,1.6,10.3v64.7h45v-68.8
		C943.6,369.7,942.2,360.9,939.3,353.7z M779.1,428.3v20.6h45v-41.5L779.1,428.3z M896.8,326.6c-11.8,0-23.6,5.6-35.4,16.8
		c-10.6-11.2-22.5-16.8-35.8-16.8c-12.9,0-23.9,4.7-33,14.1c-9,9.4-13.6,20.9-13.6,34.4v33.2l45-21v-3c0-8.9,2.5-13.4,7.5-13.4
		c2.7,0,4.6,1,5.7,2.9c0.8,1.4,1.3,3.6,1.5,6.6l90-42C920.3,330.5,909.6,326.6,896.8,326.6z M838.9,400.5v48.4h45v-64.6
		c0-1.8,0.1-3.5,0.3-5L838.9,400.5z"/>
	<path class="st0" d="M486.1,565l-48.8,22.7v92.7h48.8V566.3C486.1,565.8,486.1,565.4,486.1,565z M312.3,645.9v34.5h48.8v-57.2
		L312.3,645.9z M474.3,526.1c-7.9-9.3-19.2-13.9-33.9-13.9c-9.3,0-17.1,1.8-23.4,5.3c-6.4,3.6-12.3,9.5-17.8,17.9
		c-9.1-15.5-22-23.2-38.8-23.2c-14.2,0-25.7,4.6-34.6,13.9c-8.9,9.3-13.4,21.3-13.4,36v63.8l48.8-22.8v-29.5
		c0-8.7,2.4-13.1,7.2-13.1c2.6,0,4.3,0.9,5.2,2.7c0.9,1.8,1.3,5.2,1.3,10.5v23.1l48.8-22.8v-1.2c0-8.2,2.4-12.3,7.2-12.3
		c2.6,0,4.3,0.9,5.1,2.6c0.5,1,0.8,2.5,1,4.7l46.9-21.8C481.9,538,478.8,531.4,474.3,526.1z M374.8,616.8v63.6h48.8V594L374.8,616.8
		z"/>
	<path class="st0" d="M587.2,560.5v119.9h45V560.5H587.2z M625.7,513.4c-4.3-4.2-9.4-6.3-15.3-6.4h0l-18.2,8.5
		c-3.2,3.8-4.8,8.2-4.8,13.1c0,6.3,2.1,11.4,6.3,15.4c4.2,4,9.6,6,16.2,6c6.6,0,12-2,16.2-6c4.2-4,6.3-9.1,6.3-15.4
		C632.3,522.8,630.1,517.7,625.7,513.4z"/>
	<path class="st0" d="M778.2,629.4c-3-3.6-4.5-10.2-4.5-19.7h20.2v-30.5l-65.2-30.4v66c0,17.1,3.4,30.8,10.3,41.1
		c5.5,8.1,12.7,14.5,21.7,19.3c9,4.7,18.6,7.1,28.8,7.1c1.1,0,2.9,0,5.2-0.1v-47.3C786.7,634.8,781.2,633,778.2,629.4z M728.7,516.3
		v12.5l45,21v-33.4H728.7z"/>
	<path class="st0" d="M890.9,624.4v56h45v-35L890.9,624.4z M943,558c-15.8,0-28.4,5.1-37.9,15.4c-7.5,8.2-12,18.6-13.6,31.2
		l44.4,20.7v-1.8c0-12.5,4.1-18.8,12.3-18.8c2.6,0,5.4,0.9,8.5,2.7v-48.1C951.1,558.4,946.5,558,943,558z"/>
</g>
<line class="st1" x1="610.3" y1="507" x2="592.1" y2="515.5"/>
</svg>
