<?xml version="1.0" encoding="utf-8"?>
<!-- Generator: Adobe Illustrator 22.1.0, SVG Export Plug-In . SVG Version: 6.00 Build 0)  -->
<svg version="1.1" xmlns="http://www.w3.org/2000/svg" xmlns:xlink="http://www.w3.org/1999/xlink" x="0px" y="0px"
	 viewBox="0 0 1280 1080" style="enable-background:new 0 0 1280 1080;" xml:space="preserve">
<style type="text/css">
	.st0{fill:none;}
	.st1{font-family:'AprikasRegularDemo';}
	.st2{font-size:100px;}
	.st3{fill:#AD0000;}
	.st4{font-family:'BerlinSansFB-Reg';}
	.st5{fill:#FF0000;}
	.st6{fill:#930000;}
	.st7{font-size:150px;}
	.st8{fill:#EDA2A2;}
	.st9{fill:#FFFFFF;}
	.st10{font-family:'FranklinGothic-Demi';}
</style>
<g id="Layer_1">
	<rect x="76.7" y="38.6" class="st0" width="342.4" height="186.5"/>
	<text transform="matrix(1 0 0 1 140.6745 110.5442)"><tspan x="0" y="0" class="st1 st2">Ruam</tspan><tspan x="-4.3" y="75" class="st1 st2">M i t r</tspan></text>
</g>
<g id="Layer_2">
	<path d="M138.5,408v-71.9h18.7c6.2,0,11.2,2.2,15,6.6c3.7,4.3,5.6,9.9,5.6,16.7c0,6.7-1.8,12-5.5,16c-2.5,2.7-5.5,4.5-9.2,5.5
		l15.3,27.1h-7.8l-14.9-26.4h-10.5V408H138.5z M145.3,342.9v32h12.1c4.3,0,7.6-1.3,10-3.9c2.5-2.7,3.7-6.6,3.7-11.5
		c0-5.1-1.3-9.2-4-12.3c-2.5-2.9-5.8-4.3-9.9-4.3H145.3z"/>
	<path d="M215.5,402.8c-1.9,4.6-5.4,6.8-10.3,6.8c-5.6,0-10-2.3-13-7c-2.7-4.2-4.1-10-4.1-17.5v-22.9h6.8v22.9
		c0,6.2,1,10.8,2.9,13.8c1.7,2.6,4.1,3.9,7.3,3.9s5.7-1.3,7.4-3.9c1.9-3,2.9-7.5,2.9-13.5v-23.2h6.8v45.8h-6.8V402.8z"/>
	<path d="M261.4,368v-5.7h6.8V408h-6.8v-5.7c-2.3,4.9-5.7,7.3-10.3,7.3c-5.6,0-10-2.3-13-6.9c-2.7-4.2-4.1-10-4.1-17.5
		c0-7.5,1.4-13.3,4.1-17.5c3-4.7,7.4-7,13-7C255.6,360.7,259.1,363.1,261.4,368z M243.7,371.3c-2,3-2.9,7.6-2.9,13.8
		c0,6.2,1,10.8,2.9,13.8c1.7,2.6,4.1,3.9,7.3,3.9c7.1,0,10.7-5.9,10.7-17.7c0-11.8-3.6-17.7-10.7-17.7
		C247.8,367.5,245.4,368.8,243.7,371.3z"/>
	<path d="M288.6,367.2c1.5-4.3,4.5-6.4,9-6.4c5.8,0,10,2.4,12.6,7.3c0.2,0.4,0.4,0.8,0.6,1.3c1.7-5.7,5.5-8.5,11.7-8.5
		c5.8,0,9.9,2.4,12.5,7.3c2.1,4,3.2,10,3.2,18.1V408h-6.7v-21.9c0-6.9-0.8-11.9-2.4-14.9c-1.3-2.5-3.5-3.8-6.6-3.8
		c-3.1,0-5.3,1.3-6.6,3.8c-1.6,3-2.4,7.9-2.4,14.8v22h-6.8v-21.9c0-6.9-0.8-11.9-2.4-14.9c-1.3-2.5-3.5-3.8-6.6-3.8
		c-3.1,0-5.3,1.3-6.6,3.8c-1.6,2.9-2.4,7.8-2.4,14.6V408h-6.8v-45.7h6.8V367.2z"/>
	<path d="M185.3,483v-48.1l-22.2,38.7L141,434.9V483h-6.8v-73.6l28.9,50.5l28.9-50.5V483H185.3z"/>
	<path d="M237.3,411.1v6.8h-6.8v-6.8H237.3z M237.3,437.3V483h-6.8v-45.7H237.3z"/>
	<path d="M284.9,411.2v26.2h7.1v6.7h-7.1v39h-6.8v-39H271v-6.7h7.1v-26.2H284.9z"/>
	<path d="M331.5,444.6c2.9-5.9,6.3-8.8,10.3-8.8c1.8,0,3.4,0.2,5,0.7c1.5,0.5,3,1.2,4.3,2.2l-4,5.4c-0.7-0.5-1.5-0.9-2.4-1.2
		c-0.9-0.3-1.9-0.4-3.1-0.4c-3.2,0-5.6,1.3-7.2,3.9c-1.9,3.1-2.9,7.8-2.9,14.3V483h-6.8v-45.7h6.8V444.6z"/>
</g>
<g id="Layer_3">
	<rect x="478.8" y="28.1" class="st0" width="342.4" height="186.5"/>
	<text transform="matrix(1 0 0 1 522.5468 97.222)"><tspan x="0" y="0" class="st3 st4 st2">Ruam</tspan><tspan x="5.2" y="75" class="st5 st4 st2">M i t r</tspan></text>
</g>
<g id="Layer_4">
	<rect x="811.2" y="12.1" class="st0" width="420.4" height="251"/>
	<text transform="matrix(1 0 0 1 914.1738 84.0447)"><tspan x="0" y="0" class="st6 st1 st2">Ruam</tspan><tspan x="-6.1" y="115" class="st5 st1 st7">Mitr</tspan></text>
</g>
<g id="Layer_5">
	<rect x="492" y="305.5" class="st5" width="319.5" height="176.4"/>
	<rect x="478.8" y="313.7" class="st0" width="342.4" height="186.5"/>
	<text transform="matrix(1 0 0 1 522.5468 382.8314)"><tspan x="0" y="0" class="st8 st4 st2">Ruam</tspan><tspan x="5.2" y="75" class="st9 st4 st2">M i t r</tspan></text>
</g>
<g id="Layer_6">
	<rect x="868.5" y="300.5" class="st0" width="342.4" height="186.5"/>
	<text transform="matrix(1 0 0 1 910.9362 367.208)"><tspan x="0" y="0" class="st10 st2">Ruam</tspan><tspan x="-0.5" y="75" class="st10 st2">M i t r</tspan></text>
</g>
</svg>
