<?xml version="1.0" encoding="utf-8"?>
<!-- Generator: Adobe Illustrator 22.1.0, SVG Export Plug-In . SVG Version: 6.00 Build 0)  -->
<svg version="1.1" id="Layer_1" xmlns="http://www.w3.org/2000/svg" xmlns:xlink="http://www.w3.org/1999/xlink" x="0px" y="0px"
	 viewBox="0 0 1280 1080" style="enable-background:new 0 0 1280 1080;" xml:space="preserve">
<style type="text/css">
	.st0{fill:#CC0000;}
</style>
<g>
	<g>
		<path class="st0" d="M482.9,561.7c-3.7,0-7-2.1-9.3-5.6l-41.5-66.8h-20.6v57.3c0,8.5-5.2,15.1-11.9,15.1c-3.3,0-6.5-1.7-8.7-4.7
			c-2.1-2.8-3.2-6.5-3.2-10.4V388.1c0-8.1,5-14.5,11.5-14.5h29.2c8.3,0,15.4,0.8,21.1,2.3c5.8,1.5,11.1,4.3,15.8,8.2
			c5.2,4.5,9.4,10.1,12.3,16.8c2.9,6.7,4.4,15.1,4.4,25.2c0,13.6-2.6,25.1-7.7,34.4c-4.6,8.3-10.8,14.9-18.6,19.6l36.4,57.3
			c3.3,5.2,3.5,12.4,0.5,17.9C490.4,559.4,486.8,561.7,482.9,561.7z M426.7,463.1c5.3,0,10-0.6,13.9-1.9c3.7-1.2,6.7-3.3,9.3-6.5
			c2.4-3.1,4.3-6.7,5.4-10.8c1.2-4.2,1.8-9.6,1.8-16.1c0-4.9-0.6-9.2-1.9-12.9c-1.2-3.6-3.1-6.5-5.9-8.9c-2.3-2-4.9-3.5-8-4.3
			c-3.2-0.9-7.2-1.3-11.8-1.3h-18.1v62.7H426.7z"/>
		<path class="st0" d="M428.4,376.5c8.1,0,14.9,0.7,20.3,2.2c5.4,1.4,10.3,4,14.6,7.6c4.9,4.2,8.7,9.4,11.4,15.7
			c2.7,6.3,4.1,14.3,4.1,24c0,13.1-2.4,24.1-7.3,33c-4.9,8.8-11.6,15.5-20.2,20l38.1,60c4.9,7.7,0.9,19.6-6.7,19.6
			c-2.6,0-5.1-1.6-6.7-4.2l-42.4-68.2h-25.2v60.3c0,6.7-4,12.1-8.9,12.1c-2.5,0-4.7-1.4-6.3-3.5c-1.6-2.2-2.6-5.2-2.6-8.6V388.1
			c0-6.4,3.8-11.5,8.5-11.5H428.4 M408.6,466.1h18.1c5.7,0,10.6-0.7,14.8-2c4.2-1.4,7.8-3.9,10.8-7.5c2.7-3.4,4.7-7.4,6-11.8
			c1.3-4.5,1.9-10.1,1.9-17c0-5.2-0.7-9.8-2-13.9c-1.4-4-3.6-7.4-6.7-10.2c-2.6-2.4-5.7-4-9.2-4.9c-3.6-1-7.8-1.4-12.6-1.4h-21.1
			V466.1 M428.4,370.5h-29.2c-8.1,0-14.5,7.7-14.5,17.5v158.5c0,4.5,1.3,8.8,3.8,12.1l0,0l0,0c2.8,3.8,6.9,5.9,11.1,5.9
			c8.4,0,14.9-7.9,14.9-18.1v-54.3h15.9l40.6,65.3c2.8,4.4,7.2,7.1,11.8,7.1c5.1,0,9.5-2.9,12.3-7.9c3.5-6.5,3.3-14.9-0.6-21
			L459.8,481c7-4.8,12.7-11.2,17.1-19c5.3-9.7,8.1-21.8,8.1-35.9c0-10.5-1.5-19.4-4.6-26.4c-3.1-7.1-7.5-13.2-13.1-17.9
			c-5-4.2-10.7-7.2-17-8.9C444.3,371.3,437,370.5,428.4,370.5L428.4,370.5z M414.6,403.4h15.1c4.3,0,8,0.4,11,1.2
			c2.7,0.7,4.8,1.9,6.7,3.6l0,0l0,0c2.4,2.1,4,4.6,5,7.7c1.1,3.4,1.7,7.4,1.7,11.9c0,6.2-0.6,11.4-1.7,15.3
			c-1.1,3.6-2.7,6.9-4.9,9.7c-2.2,2.7-4.8,4.6-7.9,5.5c-3.6,1.2-8,1.7-13,1.7h-12.1V403.4L414.6,403.4z"/>
	</g>
	<g>
		<path class="st0" d="M569.5,565.4c-8.9,0-16.7-1.6-23.3-4.8c-6.7-3.2-12.4-8.1-17-14.3c-5.1-7-8.8-15.5-11-25.3
			c-2.2-9.7-3.3-21.6-3.3-35.5v-96.9c0-8.3,5.4-15.1,12-15.1c3.3,0,6.5,1.7,8.7,4.8c2.1,2.8,3.2,6.5,3.2,10.3v98.1
			c0,9.7,0.5,17.3,1.5,22.8c0.9,5.4,2.5,10.3,4.7,14.7c2.4,4.8,5.6,8.4,9.6,10.7c4,2.4,9,3.6,14.9,3.6c5.9,0,10.9-1.2,14.9-3.5
			c4-2.3,7.2-6,9.7-10.8c2.2-4.3,3.8-9.4,4.7-15.1c1-5.7,1.4-13.1,1.4-21.8v-98.7c0-8.3,5.4-15.1,12-15.1c3.3,0,6.5,1.7,8.7,4.8
			c2.1,2.8,3.2,6.5,3.2,10.3v96.9c0,13.3-1.1,25.2-3.3,35.2c-2.2,10.2-6,18.9-11.1,25.7c-4.9,6.6-10.8,11.5-17.4,14.5
			C585.8,563.9,578.1,565.4,569.5,565.4z"/>
		<path class="st0" d="M612.2,376.5c2.5,0,4.7,1.4,6.3,3.6c1.6,2.2,2.6,5.2,2.6,8.6v96.9c0,13.2-1.1,24.7-3.2,34.5
			c-2.1,9.8-5.6,18-10.5,24.5c-4.6,6.2-10.1,10.7-16.3,13.6c-6.2,2.9-13.4,4.3-21.7,4.3c-8.4,0-15.8-1.5-22-4.5
			c-6.3-3-11.5-7.5-15.8-13.3c-4.9-6.7-8.4-14.8-10.5-24.2c-2.1-9.5-3.2-21.1-3.2-34.9v-96.9c0-6.7,4-12.1,9-12.1
			c2.5,0,4.7,1.4,6.3,3.6c1.6,2.2,2.6,5.2,2.6,8.6v98.1c0,9.9,0.5,17.7,1.5,23.3c1,5.7,2.7,10.9,5,15.6c2.6,5.3,6.2,9.3,10.8,12
			c4.6,2.7,10,4,16.4,4c6.5,0,11.9-1.3,16.5-4c4.5-2.7,8.1-6.7,10.8-12c2.4-4.7,4-10,5-16c1-6,1.5-13.4,1.5-22.3v-98.7
			C603.2,382,607.3,376.5,612.2,376.5 M612.2,370.5c-8.4,0-15,8-15,18.1v98.7c0,8.6-0.5,15.8-1.4,21.3c-0.9,5.4-2.4,10.2-4.5,14.3
			c-2.2,4.4-5,7.5-8.5,9.6c-3.6,2.1-8.1,3.1-13.4,3.1c-5.4,0-9.7-1-13.3-3.2c-3.6-2.1-6.3-5.2-8.5-9.5c-2.1-4.2-3.6-8.8-4.5-13.9
			c-0.9-5.3-1.4-12.8-1.4-22.3v-98.1c0-4.5-1.3-8.8-3.8-12.1c-2.8-3.8-6.9-6-11.2-6c-8.4,0-15,8-15,18.1v96.9
			c0,14.1,1.1,26.3,3.3,36.2c2.3,10.2,6.2,19.1,11.5,26.4c4.8,6.6,10.9,11.8,18.1,15.2c7.1,3.4,15.3,5.1,24.7,5.1
			c9.1,0,17.2-1.6,24.2-4.8c7.1-3.2,13.3-8.4,18.6-15.4c5.4-7.1,9.3-16.2,11.6-26.8c2.2-10.2,3.3-22.3,3.3-35.8v-96.9
			c0-4.5-1.3-8.8-3.8-12.1C620.5,372.7,616.5,370.5,612.2,370.5L612.2,370.5z"/>
	</g>
	<g>
		<path class="st0" d="M748.2,561.7c-5.2,0-9.7-4.1-11.3-10.3l-10.5-40.4h-53.5l-10.6,40.8c-1.6,5.9-5.9,9.9-10.9,9.9
			c-6.3,0-11.5-6.5-11.5-14.5c0-1.6,0.2-3.2,0.6-4.7l40.7-151.5c2.8-10.4,10.4-17.4,18.9-17.4c4.3,0,8.4,1.7,11.8,5
			c3.3,3.1,5.7,7.4,7.1,12.4l40.5,150.7c1.5,5.4,0.4,11.4-2.7,15.5C754.5,560,751.5,561.7,748.2,561.7z M719.2,484.1l-19.6-70.3
			l-19.7,70.3H719.2z"/>
		<path class="st0" d="M700.1,376.5c3.6,0,7,1.5,9.8,4.2c2.8,2.7,5,6.5,6.2,11l40.5,150.7c2.1,7.9-2.2,16.2-8.4,16.2
			c-3.8,0-7.2-3.2-8.4-8.1l-11.1-42.7h-58.2L659.3,551c-1.2,4.6-4.4,7.7-8,7.7c-4.8,0-8.5-5.4-8.5-11.5c0-1.3,0.2-2.6,0.5-4
			L684,391.7C686.5,382.6,692.9,376.5,700.1,376.5 M675.9,487.1h47.2l-23.6-84.4L675.9,487.1 M700.1,370.5
			c-9.9,0-18.6,7.9-21.8,19.6l-40.7,151.5c-0.5,1.8-0.7,3.7-0.7,5.5c0,9.8,6.4,17.5,14.5,17.5c6.4,0,11.9-4.9,13.8-12.2l10-38.6
			h48.9l9.9,38.2c2,7.5,7.7,12.6,14.2,12.6c4.2,0,8.1-2,10.9-5.7c3.7-4.8,4.9-11.7,3.3-18.1l-40.5-150.7c-1.5-5.6-4.2-10.3-7.9-13.8
			C710,372.5,705.1,370.5,700.1,370.5L700.1,370.5z M683.9,481.1l15.7-56.1l15.7,56.1H683.9L683.9,481.1z"/>
	</g>
	<g>
		<path class="st0" d="M892.7,561.7c-6.7,0-11.9-6.6-11.9-15.1V426.9l-29.3,121l0,0.1c-1.8,5.2-5.9,8.5-10.4,8.5
			c-2.4,0-4.6-0.9-6.5-2.5c-1.7-1.4-3.1-3.5-4-6l-0.1-0.1l-29-120.8v120.2c0,8-5,14.3-11.4,14.3c-3.1,0-6.2-1.6-8.3-4.5
			c-2-2.7-3-6.2-3-9.8V396.8c0-12.8,8.1-23.3,18-23.3c3.5,0,7,1.3,9.9,3.8c2.8,2.3,5,5.7,6.4,9.7l0.1,0.2L842.1,510l28.6-120.6
			c2.2-9.5,8.9-15.8,16.6-15.8c4.8,0,9.3,2.5,12.6,6.9c3.1,4.2,4.8,9.7,4.8,15.5v150.6C904.7,555,899.4,561.7,892.7,561.7z"/>
		<path class="st0" d="M887.3,376.5c4,0,7.6,2.2,10.2,5.7c2.6,3.5,4.2,8.4,4.2,13.8v150.6c0,6.7-4,12.1-8.9,12.1
			c-4.9,0-8.9-5.4-8.9-12.1V401.7l-35.1,145.3c-1.4,4-4.3,6.5-7.6,6.5c-1.6,0-3.2-0.6-4.5-1.8c-1.3-1.1-2.4-2.8-3.1-4.8l-34.9-145.3
			v145.6c0,6.3-3.7,11.3-8.4,11.3c-2.3,0-4.4-1.3-5.9-3.3c-1.5-2.1-2.4-4.9-2.4-8V396.8c0-11.2,6.7-20.3,15-20.3
			c2.9,0,5.6,1.1,8,3.1c2.4,2,4.3,4.9,5.5,8.4l31.8,135l31.5-132.9C875.5,382,881.1,376.5,887.3,376.5 M887.3,370.5
			c-9.1,0-16.9,7.3-19.5,18.1l-25.6,108.2l-26-110.2l-0.1-0.3l-0.1-0.3c-1.6-4.5-4.1-8.3-7.3-11c-3.5-3-7.6-4.5-11.8-4.5
			c-5.9,0-11.5,3.1-15.4,8.4c-3.6,4.9-5.6,11.2-5.6,17.9v150.5c0,4.3,1.3,8.4,3.6,11.6l0,0l0,0c2.7,3.6,6.6,5.7,10.7,5.7
			c8.1,0,14.4-7.6,14.4-17.3v-94.9l23,96l0.1,0.3l0.1,0.3c1,3,2.7,5.5,4.9,7.3c2.4,2.1,5.4,3.2,8.4,3.2c5.8,0,11-4.1,13.3-10.5
			l0.1-0.3l0.1-0.3l23.3-96.4v94.5c0,10.1,6.6,18.1,14.9,18.1s14.9-7.9,14.9-18.1V396c0-6.5-1.9-12.6-5.4-17.3
			C898.5,373.5,893,370.5,887.3,370.5L887.3,370.5z"/>
	</g>
	<g>
		<path class="st0" d="M501.6,797.1c-6.6,0-12-6.8-12-15.1V662.8l-29.2,123.1l-0.1,0.1c-1.8,5.2-5.9,8.5-10.4,8.5
			c-2.4,0-4.6-0.9-6.5-2.5c-1.7-1.5-3.1-3.6-4-6l0-0.1l-29-122.9v119.8c0,8-5,14.3-11.4,14.3c-3.2,0-6.1-1.6-8.3-4.5
			c-2-2.7-3-6.1-3-9.8V632.2c0-12.8,8.1-23.3,18-23.3c3.6,0,7,1.3,9.9,3.8c2.8,2.4,5,5.7,6.4,9.7l0.1,0.2l28.9,125l28.6-122.8
			c2.2-9.5,8.9-15.9,16.6-15.9c4.8,0,9.3,2.5,12.6,6.9c3.1,4.2,4.8,9.7,4.8,15.5V782C513.5,790.5,508.3,797.1,501.6,797.1z"/>
		<path class="st0" d="M496.2,612c4,0,7.6,2.2,10.1,5.7c2.6,3.5,4.2,8.4,4.2,13.7V782c0,6.7-4,12.1-8.9,12.1c-4.9,0-9-5.4-9-12.1
			V637.2L457.5,785c-1.4,4-4.3,6.5-7.6,6.5c-1.6,0-3.2-0.6-4.5-1.8c-1.3-1.1-2.4-2.8-3.1-4.8l-34.9-147.8v145.6
			c0,6.3-3.7,11.3-8.4,11.3c-2.3,0-4.4-1.3-5.9-3.3c-1.5-2.1-2.4-4.9-2.4-8V632.2c0-11.2,6.7-20.3,15-20.3c2.9,0,5.6,1.1,8,3.1
			c2.3,2,4.3,4.9,5.5,8.4L451,761l31.6-135.4C484.4,617.5,489.9,612,496.2,612 M496.2,606c-9.1,0-17,7.3-19.5,18.2L451,734.4
			l-26-112.3l-0.1-0.3l-0.1-0.3c-1.6-4.5-4.1-8.3-7.3-11c-3.5-3-7.6-4.6-11.9-4.6c-5.9,0-11.5,3.1-15.4,8.4
			c-3.6,4.9-5.6,11.2-5.6,17.9v150.5c0,4.3,1.3,8.4,3.6,11.6c2.7,3.7,6.6,5.7,10.7,5.7c8.1,0,14.4-7.6,14.4-17.3v-94l23,97.6
			l0.1,0.3l0.1,0.3c1,3,2.7,5.5,4.9,7.4c2.4,2.1,5.3,3.2,8.4,3.2c5.8,0,11-4.1,13.3-10.5l0.1-0.3l0.1-0.3l23.3-98V782
			c0,10.1,6.6,18.1,15,18.1c8.4,0,14.9-7.9,14.9-18.1V631.4c0-6.5-1.9-12.6-5.4-17.3C507.3,608.9,501.9,606,496.2,606L496.2,606z"/>
	</g>
	<g>
		<path class="st0" d="M591.1,797.1c-6.5,0-11.9-6.7-11.9-15V624c0-8.3,5.3-15,11.9-15s11.9,6.7,11.9,15v158.1
			C602.9,790.4,597.6,797.1,591.1,797.1z"/>
		<path class="st0" d="M591.1,612c4.9,0,8.9,5.4,8.9,12v158.1c0,6.6-4,12-8.9,12s-8.9-5.4-8.9-12V624
			C582.2,617.3,586.2,612,591.1,612 M591.1,606c-8.3,0-14.9,7.9-14.9,18v158.1c0,10.1,6.5,18,14.9,18s14.9-7.9,14.9-18V624
			C605.9,613.9,599.4,606,591.1,606L591.1,606z"/>
	</g>
	<g>
		<path class="st0" d="M710.5,797.1c-6.6,0-11.9-6.8-11.9-15.1V636.5h-37.1c-6.1,0-11-6-11-13.8s4.8-13.8,11-13.8h98.1
			c6.1,0,11,6,11,13.8s-4.8,13.8-11,13.8h-37.1V782C722.5,790.3,717.1,797.1,710.5,797.1z"/>
		<path class="st0" d="M759.6,612c4.4,0,8,4.8,8,10.8s-3.6,10.8-8,10.8h-40.1V782c0,6.7-4,12.1-8.9,12.1h0c-4.9,0-8.9-5.4-8.9-12.1
			V633.5h-40.1c-4.4,0-8-4.8-8-10.8s3.6-10.8,8-10.8H759.6 M759.6,606h-98.1c-7.8,0-14,7.4-14,16.8s6.1,16.8,14,16.8h34.1V782
			c0,10.2,6.6,18.1,14.9,18.1s14.9-8,14.9-18.1V639.5h34.1c7.8,0,14-7.4,14-16.8S767.4,606,759.6,606L759.6,606z"/>
	</g>
	<g>
		<path class="st0" d="M901.3,797.1c-3.7,0-7-2.1-9.3-5.7l-41.5-66.8H830V782c0,8.3-5.4,15.1-11.9,15.1s-11.9-6.8-11.9-15.1V623.9
			c0-8.2,5.3-14.9,11.8-14.9h28.9c8.3,0,15.4,0.8,21.1,2.3c5.8,1.5,11.1,4.3,15.8,8.2c5.2,4.4,9.3,10.1,12.3,16.8
			c2.9,6.7,4.4,15.1,4.4,25.2c0,13.6-2.6,25.1-7.7,34.4c-4.6,8.3-10.8,14.9-18.6,19.6l36.4,57.3c3.3,5.2,3.5,12.4,0.5,18
			C908.8,794.8,905.3,797.1,901.3,797.1z M845.1,698.5c5.3,0,10-0.6,13.9-1.9c3.7-1.2,6.7-3.3,9.3-6.5c2.4-3.1,4.3-6.7,5.4-10.8
			c1.2-4.2,1.8-9.6,1.8-16.1c0-4.9-0.6-9.2-1.9-12.9c-1.2-3.6-3.1-6.5-5.9-8.9c-2.3-2-4.9-3.5-8-4.3c-3.2-0.9-7.2-1.3-11.8-1.3H830
			v62.7H845.1z"/>
		<path class="st0" d="M846.8,612c8.1,0,14.9,0.7,20.3,2.2c5.4,1.4,10.3,4,14.6,7.6c4.9,4.2,8.7,9.4,11.4,15.7
			c2.7,6.3,4.1,14.3,4.1,24c0,13.1-2.4,24.1-7.3,33c-4.9,8.8-11.6,15.5-20.2,20l38.1,60c4.9,7.7,0.9,19.6-6.7,19.6
			c-2.6,0-5.1-1.6-6.7-4.2l-42.4-68.2H827V782c0,6.7-4,12.1-8.9,12.1s-8.9-5.4-8.9-12.1V623.9c0-6.6,3.9-11.9,8.8-11.9H846.8
			 M827,701.5h18.1c5.7,0,10.6-0.7,14.8-2c4.2-1.4,7.8-3.9,10.8-7.5c2.7-3.4,4.7-7.4,6-11.8c1.3-4.5,1.9-10.1,1.9-17
			c0-5.2-0.7-9.8-2-13.9c-1.4-4-3.6-7.4-6.7-10.2c-2.6-2.4-5.7-4-9.2-4.9c-3.6-1-7.8-1.4-12.6-1.4H827V701.5 M846.8,606h-28.9
			c-8.3,0-14.8,7.9-14.8,17.9V782c0,10.2,6.6,18.1,14.9,18.1s14.9-8,14.9-18.1v-54.3h15.9l40.6,65.3c2.8,4.4,7.2,7.1,11.8,7.1
			c5.1,0,9.5-2.9,12.3-7.8c3.5-6.5,3.3-14.9-0.6-21l-34.8-54.8c7-4.8,12.7-11.2,17.1-19c5.3-9.7,8.1-21.8,8.1-35.9
			c0-10.5-1.5-19.4-4.6-26.4c-3.1-7.1-7.5-13.2-13.1-17.9c-5-4.2-10.7-7.2-17-8.9C862.8,606.8,855.4,606,846.8,606L846.8,606z
			 M833,638.8h15.1c4.3,0,8,0.4,11,1.2c2.7,0.7,4.8,1.9,6.7,3.6l0,0l0,0c2.4,2.1,4,4.6,5,7.6c1.1,3.4,1.7,7.4,1.7,12
			c0,6.2-0.6,11.4-1.7,15.3c-1.1,3.6-2.7,6.9-4.9,9.7c-2.2,2.7-4.8,4.6-7.9,5.5c-3.6,1.2-8,1.7-13,1.7H833V638.8L833,638.8z"/>
	</g>
</g>
</svg>
