<?xml version="1.0" encoding="UTF-8" standalone="no"?>
<svg
   width="82"
   height="82"
   viewBox="0 0 82 82"
   fill="none"
   version="1.1"
   id="svg4"
   sodipodi:docname="Group 5.svg"
   xmlns:inkscape="http://www.inkscape.org/namespaces/inkscape"
   xmlns:sodipodi="http://sodipodi.sourceforge.net/DTD/sodipodi-0.dtd"
   xmlns="http://www.w3.org/2000/svg"
   xmlns:svg="http://www.w3.org/2000/svg">
  <sodipodi:namedview
     id="namedview4"
     pagecolor="#ffffff"
     bordercolor="#000000"
     borderopacity="0.25"
     inkscape:showpageshadow="2"
     inkscape:pageopacity="0.0"
     inkscape:pagecheckerboard="0"
     inkscape:deskcolor="#d1d1d1" />
  <rect
     x="0"
     y="0"
     width="82"
     height="82"
     rx="25"
     fill="#d62828"
     id="rect1" />
  <g
     clip-path="url(#clip0_1068_326)"
     id="g3"
     transform="translate(-7,-10)">
    <g
       filter="url(#filter0_i_1068_326)"
       id="g2">
      <path
         d="m 60.1111,49.7778 c 0.7556,0 1.4889,0.0889 2.2222,0.2 V 39.2667 L 45.6667,32 29,39.2667 V 50.1778 C 29,60.2667 36.1111,69.7111 45.6667,72 c 1.2222,-0.2889 2.4,-0.7111 3.5555,-1.2222 -1.5333,-2.1778 -2.4444,-4.8222 -2.4444,-7.6667 0,-7.3555 5.9778,-13.3333 13.3333,-13.3333 z"
         fill="#ffffff"
         id="path1" />
      <path
         d="m 60.1111,54.2222 c -4.9112,0 -8.8889,3.9778 -8.8889,8.8889 0,4.9111 3.9777,8.8889 8.8889,8.8889 4.9111,0 8.8888,-3.9778 8.8888,-8.8889 0,-4.9111 -3.9777,-8.8889 -8.8888,-8.8889 z m 0,3.0667 c 1.3777,0 2.4888,1.1333 2.4888,2.4889 0,1.3555 -1.1333,2.4889 -2.4888,2.4889 -1.3556,0 -2.4889,-1.1334 -2.4889,-2.4889 0,-1.3556 1.1111,-2.4889 2.4889,-2.4889 z m 0,11.9333 c -2.0667,0 -3.8667,-1.0222 -4.9778,-2.6 0.1111,-1.6 3.3555,-2.4 4.9778,-2.4 1.6222,0 4.8666,0.8 4.9777,2.4 -1.1111,1.5778 -2.9111,2.6 -4.9777,2.6 z"
         fill="#ffffff"
         id="path2" />
    </g>
  </g>
  <defs
     id="defs4">
    <filter
       id="filter0_i_1068_326"
       x="29"
       y="32"
       width="40"
       height="44"
       filterUnits="userSpaceOnUse"
       color-interpolation-filters="sRGB">
      <feFlood
         flood-opacity="0"
         result="BackgroundImageFix"
         id="feFlood3" />
      <feBlend
         mode="normal"
         in="SourceGraphic"
         in2="BackgroundImageFix"
         result="shape"
         id="feBlend3" />
      <feColorMatrix
         in="SourceAlpha"
         type="matrix"
         values="0 0 0 0 0 0 0 0 0 0 0 0 0 0 0 0 0 0 127 0"
         result="hardAlpha"
         id="feColorMatrix3" />
      <feOffset
         dy="4"
         id="feOffset3" />
      <feGaussianBlur
         stdDeviation="2"
         id="feGaussianBlur3" />
      <feComposite
         in2="hardAlpha"
         operator="arithmetic"
         k2="-1"
         k3="1"
         id="feComposite3"
         k1="0"
         k4="0" />
      <feColorMatrix
         type="matrix"
         values="0 0 0 0 0 0 0 0 0 0 0 0 0 0 0 0 0 0 0.25 0"
         id="feColorMatrix4" />
      <feBlend
         mode="normal"
         in2="shape"
         result="effect1_innerShadow_1068_326"
         id="feBlend4" />
    </filter>
    <clipPath
       id="clip0_1068_326">
      <rect
         width="96"
         height="96"
         fill="#ffffff"
         id="rect4"
         x="0"
         y="0" />
    </clipPath>
  </defs>
</svg>
